G75*
G70*
%OFA0B0*%
%FSLAX24Y24*%
%IPPOS*%
%LPD*%
%AMOC8*
5,1,8,0,0,1.08239X$1,22.5*
%
%ADD10C,0.0080*%
%ADD11C,0.0050*%
%ADD12C,0.0060*%
%ADD13C,0.0010*%
%ADD14R,0.0195X0.0191*%
D10*
X004592Y001141D02*
X004592Y001561D01*
X004872Y001561D01*
X005052Y001561D02*
X005333Y001561D01*
X005193Y001561D02*
X005193Y001141D01*
X005513Y001141D02*
X005793Y001421D01*
X005793Y001491D01*
X005723Y001561D01*
X005583Y001561D01*
X005513Y001491D01*
X005513Y001141D02*
X005793Y001141D01*
X005973Y001211D02*
X006043Y001141D01*
X006183Y001141D01*
X006253Y001211D01*
X006253Y001281D01*
X006183Y001351D01*
X006113Y001351D01*
X006183Y001351D02*
X006253Y001421D01*
X006253Y001491D01*
X006183Y001561D01*
X006043Y001561D01*
X005973Y001491D01*
X006434Y001491D02*
X006504Y001561D01*
X006644Y001561D01*
X006714Y001491D01*
X006714Y001421D01*
X006434Y001141D01*
X006714Y001141D01*
X006894Y001141D02*
X006894Y001561D01*
X007104Y001561D01*
X007174Y001491D01*
X007174Y001351D01*
X007104Y001281D01*
X006894Y001281D01*
X007034Y001281D02*
X007174Y001141D01*
X007354Y001141D02*
X007634Y001141D01*
X007354Y001141D02*
X007354Y001561D01*
X008275Y001561D02*
X008275Y001141D01*
X008485Y001141D01*
X008555Y001211D01*
X008555Y001281D01*
X008485Y001351D01*
X008275Y001351D01*
X008485Y001351D02*
X008555Y001421D01*
X008555Y001491D01*
X008485Y001561D01*
X008275Y001561D01*
X008735Y001421D02*
X008735Y001141D01*
X008735Y001281D02*
X008875Y001421D01*
X008945Y001421D01*
X009119Y001351D02*
X009189Y001421D01*
X009329Y001421D01*
X009399Y001351D01*
X009399Y001281D01*
X009119Y001281D01*
X009119Y001211D02*
X009119Y001351D01*
X009119Y001211D02*
X009189Y001141D01*
X009329Y001141D01*
X009579Y001211D02*
X009649Y001281D01*
X009860Y001281D01*
X009860Y001351D02*
X009860Y001141D01*
X009649Y001141D01*
X009579Y001211D01*
X009649Y001421D02*
X009789Y001421D01*
X009860Y001351D01*
X010040Y001281D02*
X010250Y001421D01*
X010423Y001351D02*
X010423Y001211D01*
X010493Y001141D01*
X010633Y001141D01*
X010704Y001211D01*
X010704Y001351D01*
X010633Y001421D01*
X010493Y001421D01*
X010423Y001351D01*
X010250Y001141D02*
X010040Y001281D01*
X010040Y001141D02*
X010040Y001561D01*
X010884Y001421D02*
X010884Y001211D01*
X010954Y001141D01*
X011164Y001141D01*
X011164Y001421D01*
X011344Y001421D02*
X011484Y001421D01*
X011414Y001491D02*
X011414Y001211D01*
X011484Y001141D01*
X012111Y001421D02*
X012251Y001141D01*
X012391Y001421D01*
X012572Y001421D02*
X012712Y001561D01*
X012712Y001141D01*
X012572Y001141D02*
X012852Y001141D01*
X013032Y001141D02*
X013102Y001141D01*
X013102Y001211D01*
X013032Y001211D01*
X013032Y001141D01*
X013262Y001211D02*
X013542Y001491D01*
X013542Y001211D01*
X013472Y001141D01*
X013332Y001141D01*
X013262Y001211D01*
X013262Y001491D01*
X013332Y001561D01*
X013472Y001561D01*
X013542Y001491D01*
X013525Y002117D02*
X012580Y002117D01*
X012580Y002707D01*
X012580Y003494D02*
X012580Y003928D01*
X012737Y004085D01*
X013367Y004085D01*
X013525Y003928D01*
X013525Y003494D01*
X013525Y002707D02*
X013525Y002117D01*
X015302Y004101D02*
X015802Y004101D01*
X016052Y004351D01*
X016052Y004851D01*
X015802Y005101D01*
X016052Y005351D01*
X016052Y005851D01*
X015802Y006101D01*
X016052Y006351D01*
X016052Y006851D01*
X015802Y007101D01*
X016052Y007351D01*
X016052Y007851D01*
X015802Y008101D01*
X015302Y008101D01*
X015052Y007851D01*
X015052Y007351D01*
X015302Y007101D01*
X015052Y006851D01*
X015052Y006351D01*
X015302Y006101D01*
X015052Y005851D01*
X015052Y005351D01*
X015302Y005101D01*
X015052Y004851D01*
X015052Y004351D01*
X015302Y004101D01*
X013833Y004641D02*
X013552Y005061D01*
X013372Y004991D02*
X013372Y004851D01*
X013302Y004781D01*
X013092Y004781D01*
X013092Y004641D02*
X013092Y005061D01*
X013302Y005061D01*
X013372Y004991D01*
X013232Y004781D02*
X013372Y004641D01*
X013552Y004641D02*
X013833Y005061D01*
X013833Y005641D02*
X013552Y006061D01*
X013372Y006061D02*
X013092Y006061D01*
X013232Y006061D02*
X013232Y005641D01*
X013552Y005641D02*
X013833Y006061D01*
X013833Y006641D02*
X013833Y007061D01*
X014013Y007061D02*
X014223Y007061D01*
X014293Y006991D01*
X014293Y006711D01*
X014223Y006641D01*
X014013Y006641D01*
X014013Y007061D01*
X013833Y006641D02*
X013552Y007061D01*
X013552Y006641D01*
X013372Y006711D02*
X013372Y006851D01*
X013232Y006851D01*
X013092Y006991D02*
X013092Y006711D01*
X013162Y006641D01*
X013302Y006641D01*
X013372Y006711D01*
X013372Y006991D02*
X013302Y007061D01*
X013162Y007061D01*
X013092Y006991D01*
X013232Y007641D02*
X013372Y007781D01*
X013372Y008061D01*
X013552Y007991D02*
X013552Y007711D01*
X013623Y007641D01*
X013763Y007641D01*
X013833Y007711D01*
X014013Y007711D02*
X014083Y007641D01*
X014223Y007641D01*
X014293Y007711D01*
X014013Y007711D02*
X014013Y007991D01*
X014083Y008061D01*
X014223Y008061D01*
X014293Y007991D01*
X013833Y007991D02*
X013763Y008061D01*
X013623Y008061D01*
X013552Y007991D01*
X013092Y008061D02*
X013092Y007781D01*
X013232Y007641D01*
X004732Y001351D02*
X004592Y001351D01*
D11*
X004816Y003739D02*
X006351Y003739D01*
X006351Y008463D01*
X004816Y008463D01*
X003162Y008463D02*
X001666Y008463D01*
X001666Y003739D02*
X003162Y003739D01*
D12*
X009401Y004054D02*
X011704Y004054D01*
X011704Y008148D01*
X009401Y008148D01*
X009401Y004054D01*
X011139Y004437D02*
X011141Y004463D01*
X011147Y004489D01*
X011156Y004514D01*
X011169Y004537D01*
X011185Y004558D01*
X011204Y004576D01*
X011226Y004592D01*
X011249Y004604D01*
X011274Y004612D01*
X011300Y004617D01*
X011327Y004618D01*
X011353Y004615D01*
X011378Y004608D01*
X011403Y004598D01*
X011425Y004584D01*
X011446Y004567D01*
X011463Y004548D01*
X011478Y004526D01*
X011489Y004502D01*
X011497Y004476D01*
X011501Y004450D01*
X011501Y004424D01*
X011497Y004398D01*
X011489Y004372D01*
X011478Y004348D01*
X011463Y004326D01*
X011446Y004307D01*
X011425Y004290D01*
X011403Y004276D01*
X011378Y004266D01*
X011353Y004259D01*
X011327Y004256D01*
X011300Y004257D01*
X011274Y004262D01*
X011249Y004270D01*
X011226Y004282D01*
X011204Y004298D01*
X011185Y004316D01*
X011169Y004337D01*
X011156Y004360D01*
X011147Y004385D01*
X011141Y004411D01*
X011139Y004437D01*
D13*
X009945Y010014D02*
X009956Y010029D01*
X009972Y010047D01*
X009990Y010064D01*
X010026Y010086D01*
X010065Y010101D01*
X010106Y010107D01*
X010185Y010105D01*
X010224Y010097D01*
X010259Y010080D01*
X010290Y010056D01*
X010309Y010033D01*
X010325Y010008D01*
X010335Y009980D01*
X010345Y009936D01*
X010348Y009892D01*
X010348Y009477D01*
X010187Y009477D01*
X010187Y009857D01*
X010348Y009857D01*
X010348Y009849D02*
X010187Y009849D01*
X010187Y009857D02*
X010185Y009886D01*
X010177Y009914D01*
X010164Y009940D01*
X010152Y009956D01*
X010136Y009969D01*
X010118Y009978D01*
X010105Y009981D01*
X010092Y009982D01*
X010048Y009980D01*
X010025Y009976D01*
X010004Y009968D01*
X009985Y009955D01*
X009964Y009931D01*
X009949Y009904D01*
X009940Y009873D01*
X009937Y009842D01*
X009937Y009815D01*
X009937Y009473D01*
X009771Y009473D01*
X009771Y010092D01*
X009930Y010092D01*
X009930Y010005D01*
X009933Y010005D01*
X009937Y010006D01*
X009940Y010008D01*
X009945Y010014D01*
X009956Y010029D01*
X009956Y010028D02*
X010312Y010028D01*
X010317Y010020D02*
X009949Y010020D01*
X009943Y010011D02*
X010322Y010011D01*
X010326Y010002D02*
X009771Y010002D01*
X009771Y009994D02*
X010330Y009994D01*
X010333Y009985D02*
X009771Y009985D01*
X009771Y009977D02*
X010029Y009977D01*
X010006Y009968D02*
X009771Y009968D01*
X009771Y009960D02*
X009992Y009960D01*
X009982Y009951D02*
X009771Y009951D01*
X009771Y009943D02*
X009974Y009943D01*
X009966Y009934D02*
X009771Y009934D01*
X009771Y009926D02*
X009961Y009926D01*
X009956Y009917D02*
X009771Y009917D01*
X009771Y009909D02*
X009952Y009909D01*
X009948Y009900D02*
X009771Y009900D01*
X009771Y009891D02*
X009946Y009891D01*
X009943Y009883D02*
X009771Y009883D01*
X009771Y009874D02*
X009941Y009874D01*
X009940Y009866D02*
X009771Y009866D01*
X009771Y009857D02*
X009939Y009857D01*
X009938Y009849D02*
X009771Y009849D01*
X009771Y009840D02*
X009937Y009840D01*
X009937Y009832D02*
X009771Y009832D01*
X009771Y009823D02*
X009937Y009823D01*
X009937Y009815D02*
X009937Y009473D01*
X009771Y009473D01*
X009937Y009473D01*
X009937Y009481D02*
X009771Y009481D01*
X009771Y009473D02*
X009771Y010092D01*
X009930Y010092D01*
X009930Y010005D01*
X009933Y010005D01*
X009930Y010011D02*
X009771Y010011D01*
X009771Y010020D02*
X009930Y010020D01*
X009933Y010004D02*
X009937Y010005D01*
X009940Y010007D01*
X009930Y010028D02*
X009771Y010028D01*
X009771Y010037D02*
X009930Y010037D01*
X009930Y010045D02*
X009771Y010045D01*
X009771Y010054D02*
X009930Y010054D01*
X009930Y010062D02*
X009771Y010062D01*
X009771Y010071D02*
X009930Y010071D01*
X009930Y010079D02*
X009771Y010079D01*
X009771Y010088D02*
X009930Y010088D01*
X009946Y010013D02*
X009941Y010007D01*
X009963Y010037D02*
X010306Y010037D01*
X010299Y010045D02*
X009970Y010045D01*
X009979Y010054D02*
X010292Y010054D01*
X010282Y010062D02*
X009988Y010062D01*
X010001Y010071D02*
X010271Y010071D01*
X010260Y010079D02*
X010015Y010079D01*
X010030Y010088D02*
X010242Y010088D01*
X010224Y010096D02*
X010053Y010096D01*
X010094Y010105D02*
X010177Y010105D01*
X010120Y009977D02*
X010336Y009977D01*
X010338Y009968D02*
X010137Y009968D01*
X010147Y009960D02*
X010339Y009960D01*
X010341Y009951D02*
X010155Y009951D01*
X010162Y009943D02*
X010343Y009943D01*
X010345Y009934D02*
X010167Y009934D01*
X010185Y010104D02*
X010208Y010101D01*
X010230Y010094D01*
X010252Y010084D01*
X010272Y010071D01*
X010289Y010055D01*
X010345Y009926D02*
X010171Y009926D01*
X010335Y009979D02*
X010328Y010000D01*
X010318Y010020D01*
X010305Y010039D01*
X010290Y010055D01*
X010346Y009917D02*
X010175Y009917D01*
X010178Y009909D02*
X010347Y009909D01*
X010347Y009900D02*
X010181Y009900D01*
X010183Y009891D02*
X010348Y009891D01*
X010348Y009892D02*
X010348Y009477D01*
X010187Y009477D01*
X010187Y009857D01*
X010186Y009866D02*
X010348Y009866D01*
X010348Y009874D02*
X010186Y009874D01*
X010185Y009883D02*
X010348Y009883D01*
X010348Y009840D02*
X010187Y009840D01*
X010187Y009832D02*
X010348Y009832D01*
X010348Y009823D02*
X010187Y009823D01*
X010187Y009815D02*
X010348Y009815D01*
X010348Y009806D02*
X010187Y009806D01*
X010187Y009797D02*
X010348Y009797D01*
X010348Y009789D02*
X010187Y009789D01*
X010187Y009780D02*
X010348Y009780D01*
X010348Y009772D02*
X010187Y009772D01*
X010187Y009763D02*
X010348Y009763D01*
X010348Y009755D02*
X010187Y009755D01*
X010187Y009746D02*
X010348Y009746D01*
X010348Y009738D02*
X010187Y009738D01*
X010187Y009729D02*
X010348Y009729D01*
X010348Y009721D02*
X010187Y009721D01*
X010187Y009712D02*
X010348Y009712D01*
X010348Y009703D02*
X010187Y009703D01*
X010187Y009695D02*
X010348Y009695D01*
X010348Y009686D02*
X010187Y009686D01*
X010187Y009678D02*
X010348Y009678D01*
X010348Y009669D02*
X010187Y009669D01*
X010187Y009661D02*
X010348Y009661D01*
X010348Y009652D02*
X010187Y009652D01*
X010187Y009644D02*
X010348Y009644D01*
X010348Y009635D02*
X010187Y009635D01*
X010187Y009627D02*
X010348Y009627D01*
X010348Y009618D02*
X010187Y009618D01*
X010187Y009609D02*
X010348Y009609D01*
X010348Y009601D02*
X010187Y009601D01*
X010187Y009592D02*
X010348Y009592D01*
X010348Y009584D02*
X010187Y009584D01*
X010187Y009575D02*
X010348Y009575D01*
X010348Y009567D02*
X010187Y009567D01*
X010187Y009558D02*
X010348Y009558D01*
X010348Y009550D02*
X010187Y009550D01*
X010187Y009541D02*
X010348Y009541D01*
X010348Y009533D02*
X010187Y009533D01*
X010187Y009524D02*
X010348Y009524D01*
X010348Y009516D02*
X010187Y009516D01*
X010187Y009507D02*
X010348Y009507D01*
X010348Y009498D02*
X010187Y009498D01*
X010187Y009490D02*
X010348Y009490D01*
X010348Y009481D02*
X010187Y009481D01*
X010185Y010106D02*
X010146Y010108D01*
X010106Y010107D01*
X009989Y010064D02*
X009971Y010048D01*
X009955Y010029D01*
X010336Y009980D02*
X010343Y009951D01*
X010347Y009921D01*
X010349Y009891D01*
X010107Y010107D02*
X010082Y010104D01*
X010057Y010098D01*
X010034Y010090D01*
X010011Y010078D01*
X009991Y010064D01*
X010092Y009982D02*
X010105Y009981D01*
X010118Y009978D01*
X010132Y009971D01*
X010145Y009963D01*
X010155Y009952D01*
X010164Y009940D01*
X009949Y009903D02*
X009943Y009883D01*
X009939Y009862D01*
X009937Y009841D01*
X009937Y009815D02*
X009771Y009815D01*
X009771Y009806D02*
X009937Y009806D01*
X009937Y009797D02*
X009771Y009797D01*
X009771Y009789D02*
X009937Y009789D01*
X009937Y009780D02*
X009771Y009780D01*
X009771Y009772D02*
X009937Y009772D01*
X009937Y009763D02*
X009771Y009763D01*
X009771Y009755D02*
X009937Y009755D01*
X009937Y009746D02*
X009771Y009746D01*
X009771Y009738D02*
X009937Y009738D01*
X009937Y009729D02*
X009771Y009729D01*
X009771Y009721D02*
X009937Y009721D01*
X009937Y009712D02*
X009771Y009712D01*
X009771Y009703D02*
X009937Y009703D01*
X009937Y009695D02*
X009771Y009695D01*
X009771Y009686D02*
X009937Y009686D01*
X009937Y009678D02*
X009771Y009678D01*
X009771Y009669D02*
X009937Y009669D01*
X009937Y009661D02*
X009771Y009661D01*
X009771Y009652D02*
X009937Y009652D01*
X009937Y009644D02*
X009771Y009644D01*
X009771Y009635D02*
X009937Y009635D01*
X009937Y009627D02*
X009771Y009627D01*
X009771Y009618D02*
X009937Y009618D01*
X009937Y009609D02*
X009771Y009609D01*
X009771Y009601D02*
X009937Y009601D01*
X009937Y009592D02*
X009771Y009592D01*
X009771Y009584D02*
X009937Y009584D01*
X009937Y009575D02*
X009771Y009575D01*
X009771Y009567D02*
X009937Y009567D01*
X009937Y009558D02*
X009771Y009558D01*
X009771Y009550D02*
X009937Y009550D01*
X009937Y009541D02*
X009771Y009541D01*
X009771Y009533D02*
X009937Y009533D01*
X009937Y009524D02*
X009771Y009524D01*
X009771Y009516D02*
X009937Y009516D01*
X009937Y009507D02*
X009771Y009507D01*
X009771Y009498D02*
X009937Y009498D01*
X009937Y009490D02*
X009771Y009490D01*
X009673Y009490D02*
X009515Y009490D01*
X009515Y009498D02*
X009673Y009498D01*
X009673Y009507D02*
X009515Y009507D01*
X009515Y009516D02*
X009673Y009516D01*
X009673Y009524D02*
X009515Y009524D01*
X009515Y009533D02*
X009673Y009533D01*
X009673Y009541D02*
X009515Y009541D01*
X009515Y009550D02*
X009673Y009550D01*
X009673Y009558D02*
X009515Y009558D01*
X009515Y009567D02*
X009673Y009567D01*
X009673Y009575D02*
X009113Y009575D01*
X009110Y009583D02*
X009129Y009544D01*
X009155Y009509D01*
X009165Y009500D01*
X009201Y009479D01*
X009239Y009466D01*
X009280Y009460D01*
X009339Y009461D01*
X009397Y009470D01*
X009407Y009473D01*
X009219Y009473D01*
X009197Y009481D02*
X009422Y009481D01*
X009417Y009478D02*
X009454Y009504D01*
X009486Y009535D01*
X009514Y009570D01*
X009515Y009570D01*
X009515Y009476D01*
X009673Y009476D01*
X009673Y010091D01*
X009507Y010091D01*
X009507Y009764D01*
X009504Y009715D01*
X009495Y009667D01*
X009487Y009644D01*
X009473Y009624D01*
X009455Y009608D01*
X009434Y009596D01*
X009406Y009587D01*
X009377Y009584D01*
X009347Y009588D01*
X009319Y009597D01*
X009303Y009606D01*
X009288Y009619D01*
X009277Y009634D01*
X009263Y009665D01*
X009257Y009699D01*
X009257Y010093D01*
X009094Y010093D01*
X009094Y009668D01*
X009098Y009624D01*
X009110Y009583D01*
X009110Y009584D02*
X009673Y009584D01*
X009673Y009592D02*
X009423Y009592D01*
X009443Y009601D02*
X009673Y009601D01*
X009673Y009609D02*
X009457Y009609D01*
X009466Y009618D02*
X009673Y009618D01*
X009673Y009627D02*
X009475Y009627D01*
X009480Y009635D02*
X009673Y009635D01*
X009673Y009644D02*
X009486Y009644D01*
X009490Y009652D02*
X009673Y009652D01*
X009673Y009661D02*
X009493Y009661D01*
X009496Y009669D02*
X009673Y009669D01*
X009673Y009678D02*
X009497Y009678D01*
X009499Y009686D02*
X009673Y009686D01*
X009673Y009695D02*
X009500Y009695D01*
X009502Y009703D02*
X009673Y009703D01*
X009673Y009712D02*
X009504Y009712D01*
X009504Y009721D02*
X009673Y009721D01*
X009673Y009729D02*
X009505Y009729D01*
X009506Y009738D02*
X009673Y009738D01*
X009673Y009746D02*
X009506Y009746D01*
X009507Y009755D02*
X009673Y009755D01*
X009673Y009763D02*
X009507Y009763D01*
X009507Y009772D02*
X009673Y009772D01*
X009673Y009780D02*
X009507Y009780D01*
X009507Y009789D02*
X009673Y009789D01*
X009673Y009797D02*
X009507Y009797D01*
X009507Y009806D02*
X009673Y009806D01*
X009673Y009815D02*
X009507Y009815D01*
X009507Y009823D02*
X009673Y009823D01*
X009673Y009832D02*
X009507Y009832D01*
X009507Y009840D02*
X009673Y009840D01*
X009673Y009849D02*
X009507Y009849D01*
X009507Y009857D02*
X009673Y009857D01*
X009673Y009866D02*
X009507Y009866D01*
X009507Y009874D02*
X009673Y009874D01*
X009673Y009883D02*
X009507Y009883D01*
X009507Y009891D02*
X009673Y009891D01*
X009673Y009900D02*
X009507Y009900D01*
X009507Y009909D02*
X009673Y009909D01*
X009673Y009917D02*
X009507Y009917D01*
X009507Y009926D02*
X009673Y009926D01*
X009673Y009934D02*
X009507Y009934D01*
X009507Y009943D02*
X009673Y009943D01*
X009673Y009951D02*
X009507Y009951D01*
X009507Y009960D02*
X009673Y009960D01*
X009673Y009968D02*
X009507Y009968D01*
X009507Y009977D02*
X009673Y009977D01*
X009673Y009985D02*
X009507Y009985D01*
X009507Y009994D02*
X009673Y009994D01*
X009673Y010002D02*
X009507Y010002D01*
X009507Y010011D02*
X009673Y010011D01*
X009673Y010020D02*
X009507Y010020D01*
X009507Y010028D02*
X009673Y010028D01*
X009673Y010037D02*
X009507Y010037D01*
X009507Y010045D02*
X009673Y010045D01*
X009673Y010054D02*
X009507Y010054D01*
X009507Y010062D02*
X009673Y010062D01*
X009673Y010071D02*
X009507Y010071D01*
X009507Y010079D02*
X009673Y010079D01*
X009673Y010088D02*
X009507Y010088D01*
X009257Y010088D02*
X009094Y010088D01*
X009094Y010079D02*
X009257Y010079D01*
X009257Y010071D02*
X009094Y010071D01*
X009094Y010062D02*
X009257Y010062D01*
X009257Y010054D02*
X009094Y010054D01*
X009094Y010045D02*
X009257Y010045D01*
X009257Y010037D02*
X009094Y010037D01*
X009094Y010028D02*
X009257Y010028D01*
X009257Y010020D02*
X009094Y010020D01*
X009094Y010011D02*
X009257Y010011D01*
X009257Y010002D02*
X009094Y010002D01*
X009094Y009994D02*
X009257Y009994D01*
X009257Y009985D02*
X009094Y009985D01*
X009094Y009977D02*
X009257Y009977D01*
X009257Y009968D02*
X009094Y009968D01*
X009094Y009960D02*
X009257Y009960D01*
X009257Y009951D02*
X009094Y009951D01*
X009094Y009943D02*
X009257Y009943D01*
X009257Y009934D02*
X009094Y009934D01*
X009094Y009926D02*
X009257Y009926D01*
X009257Y009917D02*
X009094Y009917D01*
X009094Y009909D02*
X009257Y009909D01*
X009257Y009900D02*
X009094Y009900D01*
X009094Y009891D02*
X009257Y009891D01*
X009257Y009883D02*
X009094Y009883D01*
X009094Y009874D02*
X009257Y009874D01*
X009257Y009866D02*
X009094Y009866D01*
X009094Y009857D02*
X009257Y009857D01*
X009257Y009849D02*
X009094Y009849D01*
X009094Y009840D02*
X009257Y009840D01*
X009257Y009832D02*
X009094Y009832D01*
X009094Y009823D02*
X009257Y009823D01*
X009257Y009815D02*
X009094Y009815D01*
X009094Y009806D02*
X009257Y009806D01*
X009257Y009797D02*
X009094Y009797D01*
X009094Y009789D02*
X009257Y009789D01*
X009257Y009780D02*
X009094Y009780D01*
X009094Y009772D02*
X009257Y009772D01*
X009257Y009763D02*
X009094Y009763D01*
X009094Y009755D02*
X009257Y009755D01*
X009257Y009746D02*
X009094Y009746D01*
X009094Y009738D02*
X009257Y009738D01*
X009257Y009729D02*
X009094Y009729D01*
X009094Y009721D02*
X009257Y009721D01*
X009257Y009712D02*
X009094Y009712D01*
X009094Y009703D02*
X009257Y009703D01*
X009258Y009695D02*
X009094Y009695D01*
X009094Y009686D02*
X009259Y009686D01*
X009261Y009678D02*
X009094Y009678D01*
X009094Y009669D02*
X009262Y009669D01*
X009265Y009661D02*
X009095Y009661D01*
X009096Y009652D02*
X009269Y009652D01*
X009273Y009644D02*
X009096Y009644D01*
X009097Y009635D02*
X009277Y009635D01*
X009283Y009627D02*
X009098Y009627D01*
X009100Y009618D02*
X009289Y009618D01*
X009299Y009609D02*
X009102Y009609D01*
X009105Y009601D02*
X009312Y009601D01*
X009333Y009592D02*
X009107Y009592D01*
X009118Y009567D02*
X009512Y009567D01*
X009505Y009558D02*
X009122Y009558D01*
X009126Y009550D02*
X009498Y009550D01*
X009491Y009541D02*
X009131Y009541D01*
X009137Y009533D02*
X009484Y009533D01*
X009475Y009524D02*
X009144Y009524D01*
X009150Y009516D02*
X009466Y009516D01*
X009457Y009507D02*
X009157Y009507D01*
X009167Y009498D02*
X009446Y009498D01*
X009434Y009490D02*
X009182Y009490D01*
X009249Y009464D02*
X009360Y009464D01*
X009407Y009473D02*
X009417Y009478D01*
X009515Y009481D02*
X009673Y009481D01*
X010187Y009857D02*
X010186Y009879D01*
X010181Y009900D01*
X010174Y009920D01*
X010164Y009940D01*
X009985Y009955D02*
X009970Y009940D01*
X009958Y009923D01*
X009949Y009904D01*
X009986Y009955D02*
X010000Y009965D01*
X010015Y009973D01*
X010031Y009978D01*
X010049Y009980D01*
X010685Y009849D02*
X010850Y009849D01*
X010850Y009848D02*
X010846Y009802D01*
X010851Y009740D01*
X010865Y009679D01*
X010878Y009650D01*
X010897Y009624D01*
X010922Y009604D01*
X010951Y009591D01*
X010983Y009583D01*
X011015Y009582D01*
X011039Y009585D01*
X011062Y009592D01*
X011084Y009603D01*
X011102Y009617D01*
X011117Y009635D01*
X011130Y009659D01*
X011139Y009685D01*
X011143Y009712D01*
X011303Y009712D01*
X011303Y009710D01*
X011302Y009691D01*
X011298Y009673D01*
X011277Y009618D01*
X011103Y009618D01*
X011110Y009627D02*
X011280Y009627D01*
X011283Y009635D02*
X011117Y009635D01*
X011122Y009644D02*
X011287Y009644D01*
X011290Y009652D02*
X011127Y009652D01*
X011131Y009661D02*
X011293Y009661D01*
X011297Y009669D02*
X011134Y009669D01*
X011137Y009678D02*
X011299Y009678D01*
X011301Y009686D02*
X011139Y009686D01*
X011141Y009695D02*
X011302Y009695D01*
X011303Y009703D02*
X011142Y009703D01*
X011093Y009609D02*
X011271Y009609D01*
X011266Y009601D02*
X011080Y009601D01*
X011064Y009592D02*
X011260Y009592D01*
X011255Y009584D02*
X011032Y009584D01*
X010981Y009584D02*
X010739Y009584D01*
X010734Y009592D02*
X010948Y009592D01*
X010929Y009601D02*
X010728Y009601D01*
X010722Y009609D02*
X010916Y009609D01*
X010905Y009618D02*
X010718Y009618D01*
X010721Y009611D02*
X010701Y009655D01*
X010688Y009701D01*
X010682Y009749D01*
X010685Y009847D01*
X010697Y009905D01*
X010720Y009961D01*
X010752Y010011D01*
X010794Y010054D01*
X011222Y010054D01*
X011216Y010060D02*
X011250Y010025D01*
X011275Y009983D01*
X011292Y009937D01*
X011301Y009890D01*
X011136Y009890D01*
X011136Y009891D01*
X011133Y009914D01*
X011125Y009937D01*
X011113Y009957D01*
X011096Y009974D01*
X011075Y009986D01*
X011043Y009996D01*
X011009Y010000D01*
X010975Y009997D01*
X010942Y009990D01*
X010925Y009982D01*
X010910Y009970D01*
X010882Y009933D01*
X010862Y009892D01*
X010850Y009848D01*
X010849Y009840D02*
X010685Y009840D01*
X010685Y009832D02*
X010849Y009832D01*
X010848Y009823D02*
X010684Y009823D01*
X010684Y009815D02*
X010847Y009815D01*
X010846Y009806D02*
X010684Y009806D01*
X010684Y009797D02*
X010846Y009797D01*
X010847Y009789D02*
X010683Y009789D01*
X010683Y009780D02*
X010848Y009780D01*
X010849Y009772D02*
X010683Y009772D01*
X010683Y009763D02*
X010849Y009763D01*
X010850Y009755D02*
X010682Y009755D01*
X010682Y009746D02*
X010851Y009746D01*
X010852Y009738D02*
X010683Y009738D01*
X010685Y009729D02*
X010854Y009729D01*
X010856Y009721D02*
X010686Y009721D01*
X010687Y009712D02*
X010858Y009712D01*
X010859Y009703D02*
X010688Y009703D01*
X010690Y009695D02*
X010861Y009695D01*
X010863Y009686D02*
X010692Y009686D01*
X010694Y009678D02*
X010866Y009678D01*
X010869Y009669D02*
X010697Y009669D01*
X010699Y009661D02*
X010873Y009661D01*
X010877Y009652D02*
X010702Y009652D01*
X010706Y009644D02*
X010882Y009644D01*
X010889Y009635D02*
X010710Y009635D01*
X010714Y009627D02*
X010896Y009627D01*
X010822Y009507D02*
X011173Y009507D01*
X011186Y009516D02*
X010808Y009516D01*
X010814Y009511D02*
X010778Y009538D01*
X010748Y009571D01*
X010721Y009611D01*
X010745Y009575D02*
X011249Y009575D01*
X011245Y009569D02*
X011203Y009527D01*
X011154Y009495D01*
X011111Y009477D01*
X011066Y009466D01*
X011019Y009462D01*
X010957Y009466D01*
X010895Y009477D01*
X010853Y009491D01*
X010814Y009511D01*
X010797Y009524D02*
X011199Y009524D01*
X011209Y009533D02*
X010786Y009533D01*
X010776Y009541D02*
X011217Y009541D01*
X011226Y009550D02*
X010768Y009550D01*
X010760Y009558D02*
X011234Y009558D01*
X011243Y009567D02*
X010752Y009567D01*
X010838Y009498D02*
X011160Y009498D01*
X011143Y009490D02*
X010856Y009490D01*
X010881Y009481D02*
X011122Y009481D01*
X011096Y009473D02*
X010917Y009473D01*
X010979Y009464D02*
X011050Y009464D01*
X011245Y009569D02*
X011277Y009618D01*
X011379Y009654D02*
X011355Y009807D01*
X011387Y009947D01*
X011471Y010054D01*
X011669Y010054D01*
X011669Y010062D02*
X011488Y010062D01*
X011471Y010054D02*
X011604Y010120D01*
X011662Y010127D01*
X011664Y010127D01*
X011669Y010125D01*
X011669Y010010D01*
X011625Y010004D01*
X011578Y009978D01*
X011546Y009934D01*
X011530Y009898D01*
X011519Y009839D01*
X011517Y009765D01*
X011524Y009715D01*
X011539Y009669D01*
X011561Y009627D01*
X011628Y009586D01*
X011699Y009577D01*
X011770Y009601D01*
X011814Y009641D01*
X011836Y009690D01*
X011851Y009752D01*
X011851Y009809D01*
X011841Y009886D01*
X011811Y009951D01*
X011777Y009984D01*
X011738Y010005D01*
X011690Y010009D01*
X011686Y010009D01*
X011688Y010126D01*
X011767Y010116D01*
X011831Y010094D01*
X011909Y010040D01*
X011952Y009990D01*
X011993Y009898D01*
X012004Y009812D01*
X011994Y009729D01*
X011846Y009729D01*
X011848Y009738D02*
X011995Y009738D01*
X011996Y009746D02*
X011850Y009746D01*
X011851Y009755D02*
X011997Y009755D01*
X011998Y009763D02*
X011851Y009763D01*
X011851Y009772D02*
X011999Y009772D01*
X012000Y009780D02*
X011851Y009780D01*
X011851Y009789D02*
X012001Y009789D01*
X012002Y009797D02*
X011851Y009797D01*
X011851Y009806D02*
X012003Y009806D01*
X012004Y009815D02*
X011850Y009815D01*
X011849Y009823D02*
X012003Y009823D01*
X012002Y009832D02*
X011848Y009832D01*
X011847Y009840D02*
X012000Y009840D01*
X011999Y009849D02*
X011846Y009849D01*
X011845Y009857D02*
X011998Y009857D01*
X011997Y009866D02*
X011844Y009866D01*
X011843Y009874D02*
X011996Y009874D01*
X011995Y009883D02*
X011842Y009883D01*
X011839Y009891D02*
X011994Y009891D01*
X011992Y009900D02*
X011835Y009900D01*
X011831Y009909D02*
X011988Y009909D01*
X011985Y009917D02*
X011827Y009917D01*
X011823Y009926D02*
X011981Y009926D01*
X011977Y009934D02*
X011819Y009934D01*
X011815Y009943D02*
X011973Y009943D01*
X011969Y009951D02*
X011811Y009951D01*
X011802Y009960D02*
X011965Y009960D01*
X011962Y009968D02*
X011793Y009968D01*
X011784Y009977D02*
X011958Y009977D01*
X011954Y009985D02*
X011774Y009985D01*
X011758Y009994D02*
X011949Y009994D01*
X011941Y010002D02*
X011742Y010002D01*
X011686Y010011D02*
X011934Y010011D01*
X011926Y010020D02*
X011686Y010020D01*
X011686Y010028D02*
X011919Y010028D01*
X011912Y010037D02*
X011687Y010037D01*
X011687Y010045D02*
X011901Y010045D01*
X011889Y010054D02*
X011687Y010054D01*
X011687Y010062D02*
X011877Y010062D01*
X011864Y010071D02*
X011687Y010071D01*
X011687Y010079D02*
X011852Y010079D01*
X011840Y010088D02*
X011687Y010088D01*
X011688Y010096D02*
X011823Y010096D01*
X011799Y010105D02*
X011688Y010105D01*
X011688Y010114D02*
X011774Y010114D01*
X011717Y010122D02*
X011688Y010122D01*
X011688Y010130D02*
X011682Y010130D01*
X011682Y010005D01*
X011674Y010003D02*
X011665Y010003D01*
X011669Y010011D02*
X011438Y010011D01*
X011444Y010020D02*
X011669Y010020D01*
X011669Y010028D02*
X011451Y010028D01*
X011458Y010037D02*
X011669Y010037D01*
X011669Y010045D02*
X011464Y010045D01*
X011505Y010071D02*
X011669Y010071D01*
X011669Y010079D02*
X011523Y010079D01*
X011540Y010088D02*
X011669Y010088D01*
X011669Y010096D02*
X011557Y010096D01*
X011574Y010105D02*
X011669Y010105D01*
X011669Y010114D02*
X011591Y010114D01*
X011623Y010122D02*
X011669Y010122D01*
X011674Y010130D02*
X011674Y010003D01*
X011623Y010002D02*
X011431Y010002D01*
X011424Y009994D02*
X011607Y009994D01*
X011592Y009985D02*
X011417Y009985D01*
X011411Y009977D02*
X011577Y009977D01*
X011571Y009968D02*
X011404Y009968D01*
X011397Y009960D02*
X011565Y009960D01*
X011559Y009951D02*
X011391Y009951D01*
X011386Y009943D02*
X011553Y009943D01*
X011546Y009934D02*
X011384Y009934D01*
X011382Y009926D02*
X011543Y009926D01*
X011539Y009917D02*
X011380Y009917D01*
X011378Y009909D02*
X011535Y009909D01*
X011531Y009900D02*
X011376Y009900D01*
X011374Y009891D02*
X011529Y009891D01*
X011527Y009883D02*
X011372Y009883D01*
X011371Y009874D02*
X011526Y009874D01*
X011524Y009866D02*
X011369Y009866D01*
X011367Y009857D02*
X011523Y009857D01*
X011521Y009849D02*
X011365Y009849D01*
X011363Y009840D02*
X011519Y009840D01*
X011519Y009832D02*
X011361Y009832D01*
X011359Y009823D02*
X011519Y009823D01*
X012010Y009812D02*
X012008Y009777D01*
X012004Y009741D01*
X011997Y009706D01*
X011988Y009672D01*
X011976Y009638D01*
X011970Y009644D02*
X011815Y009644D01*
X011819Y009652D02*
X011973Y009652D01*
X011975Y009661D02*
X011823Y009661D01*
X011827Y009669D02*
X011978Y009669D01*
X011980Y009678D02*
X011831Y009678D01*
X011835Y009686D02*
X011982Y009686D01*
X011985Y009695D02*
X011837Y009695D01*
X011839Y009703D02*
X011987Y009703D01*
X011989Y009712D02*
X011841Y009712D01*
X011844Y009721D02*
X011992Y009721D01*
X011994Y009729D02*
X011967Y009632D01*
X011935Y009581D01*
X011888Y009536D01*
X011844Y009505D01*
X011771Y009480D01*
X011672Y009470D01*
X011554Y009486D01*
X011442Y009556D01*
X011379Y009654D01*
X011380Y009652D02*
X011548Y009652D01*
X011552Y009644D02*
X011386Y009644D01*
X011391Y009635D02*
X011557Y009635D01*
X011561Y009627D02*
X011397Y009627D01*
X011402Y009618D02*
X011575Y009618D01*
X011589Y009609D02*
X011408Y009609D01*
X011413Y009601D02*
X011603Y009601D01*
X011617Y009592D02*
X011419Y009592D01*
X011424Y009584D02*
X011643Y009584D01*
X011720Y009584D02*
X011937Y009584D01*
X011942Y009592D02*
X011745Y009592D01*
X011770Y009601D02*
X011948Y009601D01*
X011953Y009609D02*
X011780Y009609D01*
X011789Y009618D02*
X011959Y009618D01*
X011964Y009627D02*
X011798Y009627D01*
X011808Y009635D02*
X011968Y009635D01*
X011929Y009575D02*
X011430Y009575D01*
X011435Y009567D02*
X011921Y009567D01*
X011912Y009558D02*
X011441Y009558D01*
X011452Y009550D02*
X011903Y009550D01*
X011894Y009541D02*
X011466Y009541D01*
X011479Y009533D02*
X011884Y009533D01*
X011871Y009524D02*
X011493Y009524D01*
X011507Y009516D02*
X011859Y009516D01*
X011847Y009507D02*
X011520Y009507D01*
X011534Y009498D02*
X011826Y009498D01*
X011801Y009490D02*
X011548Y009490D01*
X011587Y009481D02*
X011776Y009481D01*
X011702Y009473D02*
X011650Y009473D01*
X011543Y009661D02*
X011378Y009661D01*
X011377Y009669D02*
X011539Y009669D01*
X011536Y009678D02*
X011375Y009678D01*
X011374Y009686D02*
X011533Y009686D01*
X011531Y009695D02*
X011373Y009695D01*
X011371Y009703D02*
X011528Y009703D01*
X011525Y009712D02*
X011370Y009712D01*
X011369Y009721D02*
X011523Y009721D01*
X011522Y009729D02*
X011367Y009729D01*
X011366Y009738D02*
X011521Y009738D01*
X011520Y009746D02*
X011365Y009746D01*
X011363Y009755D02*
X011519Y009755D01*
X011517Y009763D02*
X011362Y009763D01*
X011361Y009772D02*
X011517Y009772D01*
X011518Y009780D02*
X011359Y009780D01*
X011358Y009789D02*
X011518Y009789D01*
X011518Y009797D02*
X011357Y009797D01*
X011355Y009806D02*
X011518Y009806D01*
X011519Y009815D02*
X011357Y009815D01*
X011835Y009877D02*
X011841Y009844D01*
X011845Y009811D01*
X011846Y009778D01*
X011360Y009717D02*
X011355Y009755D01*
X011354Y009793D01*
X011356Y009831D01*
X011361Y009868D01*
X011301Y009891D02*
X011136Y009891D01*
X011135Y009900D02*
X011299Y009900D01*
X011297Y009909D02*
X011134Y009909D01*
X011133Y009917D02*
X011296Y009917D01*
X011294Y009926D02*
X011129Y009926D01*
X011126Y009934D02*
X011292Y009934D01*
X011290Y009943D02*
X011122Y009943D01*
X011116Y009951D02*
X011287Y009951D01*
X011284Y009960D02*
X011110Y009960D01*
X011101Y009968D02*
X011280Y009968D01*
X011277Y009977D02*
X011090Y009977D01*
X011076Y009985D02*
X011274Y009985D01*
X011268Y009994D02*
X011050Y009994D01*
X010961Y009994D02*
X010741Y009994D01*
X010736Y009985D02*
X010932Y009985D01*
X010919Y009977D02*
X010730Y009977D01*
X010724Y009968D02*
X010909Y009968D01*
X010903Y009960D02*
X010719Y009960D01*
X010716Y009951D02*
X010896Y009951D01*
X010890Y009943D02*
X010712Y009943D01*
X010709Y009934D02*
X010883Y009934D01*
X010879Y009926D02*
X010705Y009926D01*
X010702Y009917D02*
X010875Y009917D01*
X010870Y009909D02*
X010698Y009909D01*
X010696Y009900D02*
X010866Y009900D01*
X010862Y009891D02*
X010694Y009891D01*
X010692Y009883D02*
X010860Y009883D01*
X010857Y009874D02*
X010691Y009874D01*
X010689Y009866D02*
X010855Y009866D01*
X010853Y009857D02*
X010687Y009857D01*
X010747Y010002D02*
X011263Y010002D01*
X011258Y010011D02*
X010753Y010011D01*
X010761Y010020D02*
X011253Y010020D01*
X011247Y010028D02*
X010769Y010028D01*
X010778Y010037D02*
X011239Y010037D01*
X011231Y010045D02*
X010786Y010045D01*
X010794Y010054D02*
X010843Y010088D01*
X010898Y010112D01*
X010957Y010125D01*
X011018Y010126D01*
X011075Y010118D01*
X011130Y010106D01*
X011176Y010088D01*
X011216Y010060D01*
X011213Y010062D02*
X010807Y010062D01*
X010819Y010071D02*
X011201Y010071D01*
X011188Y010079D02*
X010831Y010079D01*
X010844Y010088D02*
X011175Y010088D01*
X011154Y010096D02*
X010863Y010096D01*
X010883Y010105D02*
X011132Y010105D01*
X011096Y010114D02*
X010906Y010114D01*
X010945Y010122D02*
X011046Y010122D01*
X009937Y009841D02*
X009937Y009814D01*
X009047Y010204D02*
X009044Y010204D01*
X009033Y010205D01*
X008997Y010208D01*
X008960Y010205D01*
X008948Y010201D01*
X008937Y010193D01*
X008929Y010183D01*
X008922Y010165D01*
X008919Y010146D01*
X008919Y010091D01*
X008963Y010091D01*
X009036Y010091D01*
X009036Y009986D01*
X008918Y009986D01*
X008918Y009473D01*
X008754Y009473D01*
X008918Y009473D01*
X008918Y009481D02*
X008754Y009481D01*
X008754Y009473D02*
X008754Y009977D01*
X008918Y009977D01*
X008918Y009985D02*
X008660Y009985D01*
X008631Y010020D02*
X009036Y010020D01*
X009036Y010028D02*
X008639Y010028D01*
X008648Y010037D02*
X009036Y010037D01*
X009036Y010045D02*
X008657Y010045D01*
X008665Y010054D02*
X009036Y010054D01*
X009036Y010062D02*
X008674Y010062D01*
X008682Y010071D02*
X009036Y010071D01*
X009036Y010079D02*
X008691Y010079D01*
X008699Y010088D02*
X009036Y010088D01*
X009036Y010011D02*
X008622Y010011D01*
X008614Y010002D02*
X009036Y010002D01*
X009036Y009994D02*
X008605Y009994D01*
X008597Y009986D02*
X008702Y010091D01*
X008756Y010091D01*
X008756Y010109D01*
X008763Y010193D01*
X008769Y010215D01*
X008779Y010236D01*
X008792Y010255D01*
X008821Y010283D01*
X008856Y010304D01*
X008893Y010319D01*
X008933Y010326D01*
X008994Y010326D01*
X009046Y010323D01*
X009047Y010323D01*
X009047Y010204D01*
X009047Y010208D02*
X009004Y010208D01*
X008989Y010208D02*
X008767Y010208D01*
X008769Y010216D02*
X009047Y010216D01*
X009047Y010225D02*
X008773Y010225D01*
X008777Y010233D02*
X009047Y010233D01*
X009047Y010242D02*
X008783Y010242D01*
X008789Y010250D02*
X009047Y010250D01*
X009047Y010259D02*
X008796Y010259D01*
X008805Y010267D02*
X009047Y010267D01*
X009047Y010276D02*
X008814Y010276D01*
X008824Y010284D02*
X009047Y010284D01*
X009047Y010293D02*
X008838Y010293D01*
X008851Y010301D02*
X009047Y010301D01*
X009047Y010310D02*
X008870Y010310D01*
X008892Y010319D02*
X009047Y010319D01*
X008946Y010199D02*
X008765Y010199D01*
X008763Y010190D02*
X008935Y010190D01*
X008929Y010182D02*
X008762Y010182D01*
X008761Y010173D02*
X008925Y010173D01*
X008922Y010165D02*
X008761Y010165D01*
X008760Y010156D02*
X008921Y010156D01*
X008919Y010148D02*
X008759Y010148D01*
X008759Y010139D02*
X008919Y010139D01*
X008919Y010131D02*
X008758Y010131D01*
X008757Y010122D02*
X008919Y010122D01*
X008919Y010114D02*
X008757Y010114D01*
X008756Y010105D02*
X008919Y010105D01*
X008919Y010096D02*
X008756Y010096D01*
X008754Y009985D02*
X008597Y009986D01*
X008552Y010037D02*
X008369Y010037D01*
X008378Y010045D02*
X008561Y010045D01*
X008569Y010054D02*
X008386Y010054D01*
X008395Y010062D02*
X008578Y010062D01*
X008587Y010071D02*
X008403Y010071D01*
X008412Y010079D02*
X008596Y010079D01*
X008604Y010088D02*
X008420Y010088D01*
X008422Y010090D02*
X008606Y010090D01*
X008379Y009868D01*
X008641Y009475D01*
X008441Y009476D01*
X008273Y009753D01*
X008271Y009756D01*
X008200Y009687D01*
X008200Y009477D01*
X008200Y009472D01*
X008037Y009472D01*
X008035Y009474D01*
X008035Y010235D01*
X008198Y010328D01*
X008198Y009866D01*
X008380Y009866D01*
X008386Y009874D02*
X008207Y009874D01*
X008198Y009874D02*
X008035Y009874D01*
X008035Y009866D02*
X008198Y009866D01*
X008422Y010090D01*
X008360Y010028D02*
X008543Y010028D01*
X008534Y010020D02*
X008352Y010020D01*
X008343Y010011D02*
X008526Y010011D01*
X008517Y010002D02*
X008335Y010002D01*
X008326Y009994D02*
X008508Y009994D01*
X008499Y009985D02*
X008318Y009985D01*
X008309Y009977D02*
X008491Y009977D01*
X008482Y009968D02*
X008301Y009968D01*
X008292Y009960D02*
X008473Y009960D01*
X008464Y009951D02*
X008284Y009951D01*
X008275Y009943D02*
X008456Y009943D01*
X008447Y009934D02*
X008266Y009934D01*
X008258Y009926D02*
X008438Y009926D01*
X008430Y009917D02*
X008249Y009917D01*
X008241Y009909D02*
X008421Y009909D01*
X008412Y009900D02*
X008232Y009900D01*
X008224Y009891D02*
X008403Y009891D01*
X008395Y009883D02*
X008215Y009883D01*
X008198Y009883D02*
X008035Y009883D01*
X008035Y009891D02*
X008198Y009891D01*
X008198Y009900D02*
X008035Y009900D01*
X008035Y009909D02*
X008198Y009909D01*
X008198Y009917D02*
X008035Y009917D01*
X008035Y009926D02*
X008198Y009926D01*
X008198Y009934D02*
X008035Y009934D01*
X008035Y009943D02*
X008198Y009943D01*
X008198Y009951D02*
X008035Y009951D01*
X008035Y009960D02*
X008198Y009960D01*
X008198Y009968D02*
X008035Y009968D01*
X008035Y009977D02*
X008198Y009977D01*
X008198Y009985D02*
X008035Y009985D01*
X008035Y009994D02*
X008198Y009994D01*
X008198Y010002D02*
X008035Y010002D01*
X008035Y010011D02*
X008198Y010011D01*
X008198Y010020D02*
X008035Y010020D01*
X008035Y010028D02*
X008198Y010028D01*
X008198Y010037D02*
X008035Y010037D01*
X008035Y010045D02*
X008198Y010045D01*
X008198Y010054D02*
X008035Y010054D01*
X008035Y010062D02*
X008198Y010062D01*
X008198Y010071D02*
X008035Y010071D01*
X008035Y010079D02*
X008198Y010079D01*
X008198Y010088D02*
X008035Y010088D01*
X008035Y010096D02*
X008198Y010096D01*
X008198Y010105D02*
X008035Y010105D01*
X008035Y010114D02*
X008198Y010114D01*
X008198Y010122D02*
X008035Y010122D01*
X008035Y010131D02*
X008198Y010131D01*
X008198Y010139D02*
X008035Y010139D01*
X008035Y010148D02*
X008198Y010148D01*
X008198Y010156D02*
X008035Y010156D01*
X008035Y010165D02*
X008198Y010165D01*
X008198Y010173D02*
X008035Y010173D01*
X008035Y010182D02*
X008198Y010182D01*
X008198Y010190D02*
X008035Y010190D01*
X008035Y010199D02*
X008198Y010199D01*
X008198Y010208D02*
X008035Y010208D01*
X008035Y010216D02*
X008198Y010216D01*
X008198Y010225D02*
X008035Y010225D01*
X008035Y010233D02*
X008198Y010233D01*
X008198Y010242D02*
X008047Y010242D01*
X008062Y010250D02*
X008198Y010250D01*
X008198Y010259D02*
X008077Y010259D01*
X008092Y010267D02*
X008198Y010267D01*
X008198Y010276D02*
X008107Y010276D01*
X008122Y010284D02*
X008198Y010284D01*
X008198Y010293D02*
X008137Y010293D01*
X008152Y010301D02*
X008198Y010301D01*
X008198Y010310D02*
X008167Y010310D01*
X008182Y010319D02*
X008198Y010319D01*
X008197Y010327D02*
X008198Y010327D01*
X008391Y010327D02*
X008471Y010327D01*
X008464Y010319D02*
X008391Y010319D01*
X008391Y010310D02*
X008456Y010310D01*
X008449Y010301D02*
X008391Y010301D01*
X008391Y010293D02*
X008441Y010293D01*
X008433Y010284D02*
X008391Y010284D01*
X008391Y010276D02*
X008426Y010276D01*
X008418Y010267D02*
X008391Y010267D01*
X008391Y010259D02*
X008411Y010259D01*
X008403Y010250D02*
X008391Y010250D01*
X008391Y010242D02*
X008396Y010242D01*
X008391Y010237D02*
X008583Y010453D01*
X008617Y010484D01*
X008657Y010508D01*
X008672Y010513D01*
X008687Y010516D01*
X008777Y010516D01*
X008831Y010521D01*
X008883Y010535D01*
X008931Y010559D01*
X008977Y010591D01*
X009017Y010629D01*
X009052Y010673D01*
X009089Y010739D01*
X009114Y010811D01*
X009125Y010886D01*
X009123Y010962D01*
X009115Y011003D01*
X009101Y011042D01*
X009081Y011079D01*
X008660Y011079D01*
X008665Y011070D02*
X009086Y011070D01*
X009090Y011062D02*
X008671Y011062D01*
X008673Y011060D02*
X008730Y010999D01*
X008745Y010981D01*
X008755Y010960D01*
X008759Y010937D01*
X008758Y010914D01*
X008750Y010892D01*
X008737Y010873D01*
X008719Y010858D01*
X008697Y010846D01*
X008673Y010838D01*
X008648Y010834D01*
X008619Y010835D01*
X008591Y010844D01*
X008566Y010859D01*
X008553Y010873D01*
X008544Y010890D01*
X008540Y010907D01*
X008540Y010925D01*
X008418Y010925D01*
X008419Y010927D02*
X008403Y010898D01*
X008394Y010866D01*
X008391Y010834D01*
X008391Y010237D01*
X008391Y010336D02*
X008479Y010336D01*
X008487Y010344D02*
X008391Y010344D01*
X008391Y010353D02*
X008494Y010353D01*
X008502Y010361D02*
X008391Y010361D01*
X008391Y010370D02*
X008509Y010370D01*
X008517Y010378D02*
X008391Y010378D01*
X008391Y010387D02*
X008525Y010387D01*
X008532Y010395D02*
X008391Y010395D01*
X008391Y010404D02*
X008540Y010404D01*
X008547Y010413D02*
X008391Y010413D01*
X008391Y010421D02*
X008555Y010421D01*
X008563Y010430D02*
X008391Y010430D01*
X008391Y010438D02*
X008570Y010438D01*
X008578Y010447D02*
X008391Y010447D01*
X008391Y010455D02*
X008586Y010455D01*
X008595Y010464D02*
X008391Y010464D01*
X008391Y010472D02*
X008604Y010472D01*
X008614Y010481D02*
X008391Y010481D01*
X008391Y010489D02*
X008626Y010489D01*
X008641Y010498D02*
X008391Y010498D01*
X008391Y010507D02*
X008655Y010507D01*
X008683Y010515D02*
X008391Y010515D01*
X008391Y010524D02*
X008841Y010524D01*
X008872Y010532D02*
X008391Y010532D01*
X008391Y010541D02*
X008894Y010541D01*
X008912Y010549D02*
X008391Y010549D01*
X008391Y010558D02*
X008929Y010558D01*
X008942Y010566D02*
X008391Y010566D01*
X008391Y010575D02*
X008954Y010575D01*
X008966Y010583D02*
X008391Y010583D01*
X008391Y010592D02*
X008978Y010592D01*
X008987Y010601D02*
X008391Y010601D01*
X008391Y010609D02*
X008996Y010609D01*
X009005Y010618D02*
X008391Y010618D01*
X008391Y010626D02*
X009014Y010626D01*
X009022Y010635D02*
X008391Y010635D01*
X008391Y010643D02*
X009029Y010643D01*
X009035Y010652D02*
X008391Y010652D01*
X008391Y010660D02*
X009042Y010660D01*
X009049Y010669D02*
X008391Y010669D01*
X008391Y010677D02*
X009055Y010677D01*
X009060Y010686D02*
X008391Y010686D01*
X008391Y010694D02*
X009064Y010694D01*
X009069Y010703D02*
X008391Y010703D01*
X008391Y010712D02*
X009074Y010712D01*
X009079Y010720D02*
X008391Y010720D01*
X008391Y010729D02*
X009084Y010729D01*
X009088Y010737D02*
X008391Y010737D01*
X008391Y010746D02*
X009092Y010746D01*
X009095Y010754D02*
X008391Y010754D01*
X008391Y010763D02*
X009098Y010763D01*
X009101Y010771D02*
X008391Y010771D01*
X008391Y010780D02*
X009104Y010780D01*
X009106Y010788D02*
X008391Y010788D01*
X008391Y010797D02*
X009109Y010797D01*
X009112Y010806D02*
X008391Y010806D01*
X008391Y010814D02*
X009115Y010814D01*
X009116Y010823D02*
X008391Y010823D01*
X008391Y010831D02*
X009117Y010831D01*
X009119Y010840D02*
X008679Y010840D01*
X008701Y010848D02*
X009120Y010848D01*
X009121Y010857D02*
X008717Y010857D01*
X008728Y010865D02*
X009122Y010865D01*
X009124Y010874D02*
X008737Y010874D01*
X008743Y010882D02*
X009125Y010882D01*
X009125Y010891D02*
X008749Y010891D01*
X008753Y010900D02*
X009125Y010900D01*
X009125Y010908D02*
X008756Y010908D01*
X008758Y010917D02*
X009125Y010917D01*
X009124Y010925D02*
X008759Y010925D01*
X008759Y010934D02*
X009124Y010934D01*
X009124Y010942D02*
X008759Y010942D01*
X008757Y010951D02*
X009123Y010951D01*
X009123Y010959D02*
X008755Y010959D01*
X008751Y010968D02*
X009122Y010968D01*
X009120Y010976D02*
X008747Y010976D01*
X008742Y010985D02*
X009119Y010985D01*
X009117Y010994D02*
X008735Y010994D01*
X008727Y011002D02*
X009115Y011002D01*
X009112Y011011D02*
X008719Y011011D01*
X008711Y011019D02*
X009109Y011019D01*
X009106Y011028D02*
X008703Y011028D01*
X008695Y011036D02*
X009103Y011036D01*
X009099Y011045D02*
X008687Y011045D01*
X008679Y011053D02*
X009095Y011053D01*
X009081Y011079D02*
X009045Y011124D01*
X009001Y011160D01*
X009001Y011125D01*
X009000Y011119D01*
X008998Y011114D01*
X008986Y011099D01*
X008971Y011089D01*
X008963Y011086D01*
X008941Y011083D01*
X008918Y011087D01*
X008654Y011087D01*
X008648Y011096D02*
X008902Y011096D01*
X008898Y011098D02*
X008862Y011124D01*
X008845Y011138D01*
X008831Y011155D01*
X008820Y011174D01*
X008811Y011194D01*
X008809Y011207D01*
X008614Y011207D01*
X008615Y011214D02*
X008611Y011185D01*
X008615Y011156D01*
X008831Y011156D01*
X008825Y011164D02*
X008614Y011164D01*
X008615Y011156D02*
X008626Y011129D01*
X008673Y011060D01*
X008642Y011105D02*
X008889Y011105D01*
X008898Y011098D02*
X008918Y011087D01*
X008877Y011113D02*
X008637Y011113D01*
X008631Y011122D02*
X008865Y011122D01*
X008855Y011130D02*
X008626Y011130D01*
X008622Y011139D02*
X008845Y011139D01*
X008838Y011147D02*
X008619Y011147D01*
X008613Y011173D02*
X008820Y011173D01*
X008816Y011181D02*
X008612Y011181D01*
X008612Y011190D02*
X008813Y011190D01*
X008810Y011199D02*
X008613Y011199D01*
X008615Y011214D02*
X008625Y011241D01*
X008642Y011265D01*
X008670Y011291D01*
X008700Y011313D01*
X008731Y011328D01*
X008764Y011337D01*
X008798Y011340D01*
X008834Y011336D01*
X008868Y011328D01*
X008877Y011324D01*
X008891Y011318D01*
X008911Y011309D01*
X008928Y011296D01*
X008929Y011295D01*
X008929Y011295D01*
X008905Y011295D01*
X008884Y011292D01*
X008864Y011287D01*
X008844Y011276D01*
X008828Y011261D01*
X008816Y011241D01*
X008625Y011241D01*
X008622Y011233D02*
X008813Y011233D01*
X008816Y011241D02*
X008809Y011220D01*
X008809Y011207D01*
X008809Y011216D02*
X008615Y011216D01*
X008619Y011224D02*
X008810Y011224D01*
X008821Y011250D02*
X008631Y011250D01*
X008638Y011258D02*
X008826Y011258D01*
X008834Y011267D02*
X008644Y011267D01*
X008653Y011275D02*
X008843Y011275D01*
X008859Y011284D02*
X008662Y011284D01*
X008672Y011293D02*
X008885Y011293D01*
X008890Y011318D02*
X008711Y011318D01*
X008696Y011310D02*
X008910Y011310D01*
X008921Y011301D02*
X008684Y011301D01*
X008728Y011327D02*
X008871Y011327D01*
X008838Y011335D02*
X008757Y011335D01*
X009001Y011156D02*
X009006Y011156D01*
X009001Y011147D02*
X009016Y011147D01*
X009027Y011139D02*
X009001Y011139D01*
X009001Y011130D02*
X009037Y011130D01*
X009047Y011122D02*
X009001Y011122D01*
X008998Y011113D02*
X009054Y011113D01*
X009061Y011105D02*
X008991Y011105D01*
X008982Y011096D02*
X009067Y011096D01*
X009074Y011087D02*
X008968Y011087D01*
X008606Y010983D02*
X008599Y010983D01*
X008592Y010982D01*
X008586Y010979D01*
X008553Y010955D01*
X008548Y010950D01*
X008544Y010943D01*
X008540Y010925D01*
X008540Y010917D02*
X008414Y010917D01*
X008409Y010908D02*
X008540Y010908D01*
X008542Y010900D02*
X008404Y010900D01*
X008401Y010891D02*
X008544Y010891D01*
X008548Y010882D02*
X008399Y010882D01*
X008396Y010874D02*
X008552Y010874D01*
X008560Y010865D02*
X008394Y010865D01*
X008393Y010857D02*
X008569Y010857D01*
X008584Y010848D02*
X008392Y010848D01*
X008392Y010840D02*
X008604Y010840D01*
X008542Y010934D02*
X008425Y010934D01*
X008419Y010927D02*
X008438Y010948D01*
X008460Y010966D01*
X008486Y010979D01*
X008513Y010986D01*
X008550Y010989D01*
X008587Y010986D01*
X008606Y010983D01*
X008592Y010985D02*
X008510Y010985D01*
X008481Y010976D02*
X008583Y010976D01*
X008571Y010968D02*
X008464Y010968D01*
X008452Y010959D02*
X008559Y010959D01*
X008549Y010951D02*
X008441Y010951D01*
X008432Y010942D02*
X008544Y010942D01*
X007961Y010103D02*
X007961Y009951D01*
X007960Y009951D01*
X007954Y009952D01*
X007930Y009957D01*
X007869Y009957D01*
X007847Y009953D01*
X007826Y009946D01*
X007806Y009935D01*
X007779Y009912D01*
X007758Y009884D01*
X007743Y009852D01*
X007735Y009819D01*
X007732Y009785D01*
X007732Y009477D01*
X007568Y009477D01*
X007569Y010063D01*
X007721Y010090D01*
X007721Y009977D01*
X007569Y009977D01*
X007569Y009985D02*
X007721Y009985D01*
X007721Y009977D02*
X007725Y009975D01*
X007731Y009977D01*
X007961Y009977D01*
X007961Y009985D02*
X007737Y009985D01*
X007739Y009989D02*
X007766Y010030D01*
X007779Y010045D01*
X007961Y010045D01*
X007961Y010037D02*
X007772Y010037D01*
X007779Y010045D02*
X007794Y010057D01*
X007829Y010080D01*
X007853Y010094D01*
X007880Y010102D01*
X007907Y010106D01*
X007961Y010103D01*
X007961Y010096D02*
X007862Y010096D01*
X007843Y010088D02*
X007961Y010088D01*
X007961Y010079D02*
X007828Y010079D01*
X007815Y010071D02*
X007961Y010071D01*
X007961Y010062D02*
X007802Y010062D01*
X007790Y010054D02*
X007961Y010054D01*
X007961Y010028D02*
X007765Y010028D01*
X007759Y010020D02*
X007961Y010020D01*
X007961Y010011D02*
X007754Y010011D01*
X007748Y010002D02*
X007961Y010002D01*
X007961Y009994D02*
X007743Y009994D01*
X007739Y009989D02*
X007731Y009977D01*
X007721Y009994D02*
X007569Y009994D01*
X007569Y010002D02*
X007721Y010002D01*
X007721Y010011D02*
X007569Y010011D01*
X007569Y010020D02*
X007721Y010020D01*
X007721Y010028D02*
X007569Y010028D01*
X007569Y010037D02*
X007721Y010037D01*
X007721Y010045D02*
X007569Y010045D01*
X007569Y010054D02*
X007721Y010054D01*
X007721Y010062D02*
X007569Y010062D01*
X007614Y010071D02*
X007721Y010071D01*
X007721Y010079D02*
X007662Y010079D01*
X007710Y010088D02*
X007721Y010088D01*
X007805Y009934D02*
X007569Y009934D01*
X007569Y009926D02*
X007795Y009926D01*
X007785Y009917D02*
X007569Y009917D01*
X007569Y009909D02*
X007776Y009909D01*
X007770Y009900D02*
X007569Y009900D01*
X007569Y009891D02*
X007763Y009891D01*
X007757Y009883D02*
X007569Y009883D01*
X007569Y009874D02*
X007753Y009874D01*
X007749Y009866D02*
X007569Y009866D01*
X007569Y009857D02*
X007746Y009857D01*
X007742Y009849D02*
X007569Y009849D01*
X007569Y009840D02*
X007740Y009840D01*
X007738Y009832D02*
X007569Y009832D01*
X007569Y009823D02*
X007736Y009823D01*
X007735Y009815D02*
X007569Y009815D01*
X007569Y009806D02*
X007734Y009806D01*
X007733Y009797D02*
X007569Y009797D01*
X007569Y009789D02*
X007733Y009789D01*
X007732Y009780D02*
X007569Y009780D01*
X007569Y009772D02*
X007732Y009772D01*
X007732Y009763D02*
X007569Y009763D01*
X007569Y009755D02*
X007732Y009755D01*
X007732Y009746D02*
X007569Y009746D01*
X007569Y009738D02*
X007732Y009738D01*
X007732Y009729D02*
X007569Y009729D01*
X007569Y009721D02*
X007732Y009721D01*
X007732Y009712D02*
X007569Y009712D01*
X007569Y009703D02*
X007732Y009703D01*
X007732Y009695D02*
X007568Y009695D01*
X007568Y009686D02*
X007732Y009686D01*
X007732Y009678D02*
X007568Y009678D01*
X007568Y009669D02*
X007732Y009669D01*
X007732Y009661D02*
X007568Y009661D01*
X007568Y009652D02*
X007732Y009652D01*
X007732Y009644D02*
X007568Y009644D01*
X007568Y009635D02*
X007732Y009635D01*
X007732Y009627D02*
X007568Y009627D01*
X007568Y009618D02*
X007732Y009618D01*
X007732Y009609D02*
X007568Y009609D01*
X007568Y009601D02*
X007732Y009601D01*
X007732Y009592D02*
X007568Y009592D01*
X007568Y009584D02*
X007732Y009584D01*
X007732Y009575D02*
X007568Y009575D01*
X007568Y009567D02*
X007732Y009567D01*
X007732Y009558D02*
X007568Y009558D01*
X007568Y009550D02*
X007732Y009550D01*
X007732Y009541D02*
X007568Y009541D01*
X007568Y009533D02*
X007732Y009533D01*
X007732Y009524D02*
X007568Y009524D01*
X007568Y009516D02*
X007732Y009516D01*
X007732Y009507D02*
X007568Y009507D01*
X007568Y009498D02*
X007732Y009498D01*
X007732Y009490D02*
X007568Y009490D01*
X007568Y009481D02*
X007732Y009481D01*
X007482Y009477D02*
X007479Y009485D01*
X007465Y009536D01*
X007461Y009590D01*
X007462Y009761D01*
X007301Y009761D01*
X007301Y009728D01*
X007298Y009684D01*
X007290Y009642D01*
X007288Y009635D01*
X007284Y009624D01*
X007277Y009615D01*
X007247Y009586D01*
X007235Y009578D01*
X007221Y009573D01*
X007179Y009567D01*
X007463Y009567D01*
X007462Y009575D02*
X007228Y009575D01*
X007244Y009584D02*
X007462Y009584D01*
X007461Y009592D02*
X007254Y009592D01*
X007263Y009601D02*
X007461Y009601D01*
X007461Y009609D02*
X007272Y009609D01*
X007279Y009618D02*
X007461Y009618D01*
X007461Y009627D02*
X007285Y009627D01*
X007288Y009635D02*
X007461Y009635D01*
X007461Y009644D02*
X007291Y009644D01*
X007292Y009652D02*
X007461Y009652D01*
X007462Y009661D02*
X007294Y009661D01*
X007295Y009669D02*
X007462Y009669D01*
X007462Y009678D02*
X007297Y009678D01*
X007299Y009686D02*
X007462Y009686D01*
X007462Y009695D02*
X007299Y009695D01*
X007300Y009703D02*
X007462Y009703D01*
X007462Y009712D02*
X007300Y009712D01*
X007301Y009721D02*
X007462Y009721D01*
X007462Y009729D02*
X007301Y009729D01*
X007301Y009738D02*
X007462Y009738D01*
X007462Y009746D02*
X007301Y009746D01*
X007301Y009755D02*
X007462Y009755D01*
X007461Y009765D02*
X007301Y009765D01*
X007301Y009789D01*
X007299Y009789D01*
X007294Y009781D01*
X007287Y009775D01*
X007279Y009771D01*
X007241Y009759D01*
X007202Y009753D01*
X007145Y009747D01*
X007123Y009743D01*
X007102Y009734D01*
X007082Y009723D01*
X007071Y009712D01*
X007062Y009700D01*
X007053Y009678D01*
X006890Y009678D01*
X006888Y009670D02*
X006888Y009628D01*
X006895Y009587D01*
X006910Y009548D01*
X006922Y009529D01*
X006936Y009512D01*
X006954Y009499D01*
X007004Y009475D01*
X007058Y009463D01*
X007122Y009461D01*
X007186Y009471D01*
X007227Y009485D01*
X007264Y009506D01*
X007297Y009534D01*
X007299Y009535D01*
X007302Y009536D01*
X007304Y009535D01*
X007306Y009533D01*
X007307Y009531D01*
X007316Y009490D01*
X007478Y009490D01*
X007475Y009498D02*
X007314Y009498D01*
X007316Y009490D02*
X007319Y009479D01*
X007320Y009477D01*
X007321Y009477D01*
X007323Y009477D01*
X007482Y009477D01*
X007480Y009481D02*
X007318Y009481D01*
X007312Y009507D02*
X007473Y009507D01*
X007471Y009516D02*
X007310Y009516D01*
X007309Y009524D02*
X007469Y009524D01*
X007466Y009533D02*
X007306Y009533D01*
X007296Y009533D02*
X006919Y009533D01*
X006914Y009541D02*
X007465Y009541D01*
X007464Y009550D02*
X006909Y009550D01*
X006906Y009558D02*
X007464Y009558D01*
X007286Y009524D02*
X006926Y009524D01*
X006934Y009516D02*
X007276Y009516D01*
X007266Y009507D02*
X006943Y009507D01*
X006955Y009498D02*
X007251Y009498D01*
X007236Y009490D02*
X006973Y009490D01*
X006991Y009481D02*
X007217Y009481D01*
X007192Y009473D02*
X007014Y009473D01*
X007052Y009464D02*
X007142Y009464D01*
X007118Y009569D02*
X007099Y009573D01*
X007081Y009581D01*
X007066Y009594D01*
X007058Y009604D01*
X007052Y009617D01*
X007049Y009630D01*
X007049Y009654D01*
X007053Y009678D01*
X007052Y009669D02*
X006888Y009669D01*
X006888Y009670D02*
X006896Y009707D01*
X006913Y009741D01*
X006933Y009765D01*
X006957Y009784D01*
X006984Y009799D01*
X007043Y009818D01*
X007103Y009829D01*
X007190Y009838D01*
X007242Y009847D01*
X007261Y009854D01*
X007279Y009864D01*
X007291Y009875D01*
X007294Y009879D01*
X007296Y009884D01*
X007301Y009905D01*
X007301Y009927D01*
X007296Y009949D01*
X007290Y009962D01*
X007282Y009974D01*
X007271Y009984D01*
X007258Y009992D01*
X007243Y009997D01*
X007228Y010000D01*
X007174Y010002D01*
X007150Y010000D01*
X007127Y009993D01*
X007108Y009982D01*
X007092Y009967D01*
X007079Y009949D01*
X007072Y009929D01*
X007069Y009907D01*
X007069Y009905D01*
X007067Y009905D01*
X006902Y009905D01*
X006903Y009904D01*
X006908Y009943D01*
X006922Y009980D01*
X006942Y010013D01*
X006969Y010042D01*
X007001Y010065D01*
X007047Y010086D01*
X007095Y010099D01*
X007164Y010107D01*
X007233Y010107D01*
X007301Y010098D01*
X007357Y010081D01*
X007408Y010054D01*
X007430Y010035D01*
X007447Y010011D01*
X006941Y010011D01*
X006935Y010002D02*
X007450Y010002D01*
X007454Y009994D02*
X007252Y009994D01*
X007269Y009985D02*
X007457Y009985D01*
X007458Y009984D02*
X007447Y010011D01*
X007441Y010020D02*
X006948Y010020D01*
X006956Y010028D02*
X007435Y010028D01*
X007428Y010037D02*
X006964Y010037D01*
X006973Y010045D02*
X007418Y010045D01*
X007408Y010054D02*
X006985Y010054D01*
X006998Y010062D02*
X007392Y010062D01*
X007376Y010071D02*
X007014Y010071D01*
X007033Y010079D02*
X007360Y010079D01*
X007334Y010088D02*
X007055Y010088D01*
X007087Y010096D02*
X007306Y010096D01*
X007247Y010105D02*
X007146Y010105D01*
X007131Y009994D02*
X006930Y009994D01*
X006925Y009985D02*
X007114Y009985D01*
X007102Y009977D02*
X006921Y009977D01*
X006918Y009968D02*
X007093Y009968D01*
X007086Y009960D02*
X006914Y009960D01*
X006911Y009951D02*
X007081Y009951D01*
X007077Y009943D02*
X006908Y009943D01*
X006907Y009934D02*
X007074Y009934D01*
X007071Y009926D02*
X006906Y009926D01*
X006905Y009917D02*
X007070Y009917D01*
X007069Y009909D02*
X006904Y009909D01*
X006813Y009883D02*
X006652Y009883D01*
X006655Y009876D02*
X006639Y009912D01*
X006615Y009944D01*
X006584Y009970D01*
X006564Y009980D01*
X006541Y009987D01*
X006518Y009989D01*
X006475Y009987D01*
X006459Y009984D01*
X006445Y009977D01*
X006416Y009954D01*
X006392Y009927D01*
X006375Y009898D01*
X006365Y009867D01*
X006360Y009834D01*
X006361Y009733D01*
X006366Y009702D01*
X006375Y009675D01*
X006375Y009673D01*
X006375Y009672D01*
X006374Y009671D01*
X006372Y009671D01*
X006367Y009671D01*
X006367Y009549D01*
X006367Y009108D01*
X006204Y009255D01*
X006204Y010062D01*
X006204Y010065D01*
X006357Y010094D01*
X006356Y010015D01*
X006359Y010012D01*
X006361Y010011D01*
X006370Y010021D01*
X006405Y010059D01*
X006419Y010071D01*
X006686Y010071D01*
X006672Y010079D02*
X006433Y010079D01*
X006434Y010080D02*
X006486Y010101D01*
X006505Y010105D01*
X006583Y010106D01*
X006626Y010099D01*
X006666Y010083D01*
X006702Y010061D01*
X006734Y010036D01*
X006765Y010001D01*
X006788Y009960D01*
X006815Y009877D01*
X006826Y009790D01*
X006821Y009703D01*
X006808Y009649D01*
X006787Y009597D01*
X006756Y009551D01*
X006730Y009523D01*
X006700Y009500D01*
X006666Y009482D01*
X006630Y009471D01*
X006582Y009463D01*
X006534Y009463D01*
X006486Y009469D01*
X006453Y009479D01*
X006423Y009496D01*
X006397Y009520D01*
X006376Y009548D01*
X006376Y009665D01*
X006379Y009668D01*
X006379Y009666D01*
X006380Y009662D01*
X006382Y009659D01*
X006384Y009656D01*
X006396Y009633D01*
X006413Y009614D01*
X006434Y009599D01*
X006462Y009587D01*
X006491Y009581D01*
X006528Y009581D01*
X006564Y009588D01*
X006594Y009602D01*
X006620Y009623D01*
X006639Y009650D01*
X006651Y009681D01*
X006663Y009758D01*
X006663Y009837D01*
X006655Y009876D01*
X006656Y009874D02*
X006815Y009874D01*
X006816Y009866D02*
X006657Y009866D01*
X006659Y009857D02*
X006817Y009857D01*
X006818Y009849D02*
X006661Y009849D01*
X006662Y009840D02*
X006819Y009840D01*
X006820Y009832D02*
X006663Y009832D01*
X006663Y009823D02*
X006821Y009823D01*
X006823Y009815D02*
X006663Y009815D01*
X006663Y009806D02*
X006824Y009806D01*
X006825Y009797D02*
X006663Y009797D01*
X006663Y009789D02*
X006826Y009789D01*
X006825Y009780D02*
X006663Y009780D01*
X006663Y009772D02*
X006825Y009772D01*
X006824Y009763D02*
X006663Y009763D01*
X006663Y009755D02*
X006824Y009755D01*
X006823Y009746D02*
X006661Y009746D01*
X006660Y009738D02*
X006823Y009738D01*
X006823Y009729D02*
X006659Y009729D01*
X006657Y009721D02*
X006822Y009721D01*
X006822Y009712D02*
X006656Y009712D01*
X006655Y009703D02*
X006821Y009703D01*
X006819Y009695D02*
X006653Y009695D01*
X006652Y009686D02*
X006817Y009686D01*
X006815Y009678D02*
X006650Y009678D01*
X006647Y009669D02*
X006813Y009669D01*
X006811Y009661D02*
X006644Y009661D01*
X006640Y009652D02*
X006809Y009652D01*
X006806Y009644D02*
X006635Y009644D01*
X006629Y009635D02*
X006803Y009635D01*
X006799Y009627D02*
X006623Y009627D01*
X006614Y009618D02*
X006795Y009618D01*
X006792Y009609D02*
X006604Y009609D01*
X006593Y009601D02*
X006788Y009601D01*
X006783Y009592D02*
X006574Y009592D01*
X006544Y009584D02*
X006778Y009584D01*
X006772Y009575D02*
X006376Y009575D01*
X006376Y009567D02*
X006767Y009567D01*
X006761Y009558D02*
X006376Y009558D01*
X006376Y009550D02*
X006755Y009550D01*
X006747Y009541D02*
X006381Y009541D01*
X006387Y009533D02*
X006739Y009533D01*
X006731Y009524D02*
X006393Y009524D01*
X006401Y009516D02*
X006720Y009516D01*
X006709Y009507D02*
X006411Y009507D01*
X006420Y009498D02*
X006697Y009498D01*
X006681Y009490D02*
X006434Y009490D01*
X006449Y009481D02*
X006663Y009481D01*
X006636Y009473D02*
X006473Y009473D01*
X006522Y009464D02*
X006588Y009464D01*
X006476Y009584D02*
X006376Y009584D01*
X006376Y009592D02*
X006449Y009592D01*
X006431Y009601D02*
X006376Y009601D01*
X006376Y009609D02*
X006419Y009609D01*
X006409Y009618D02*
X006376Y009618D01*
X006376Y009627D02*
X006402Y009627D01*
X006395Y009635D02*
X006376Y009635D01*
X006376Y009644D02*
X006391Y009644D01*
X006386Y009652D02*
X006376Y009652D01*
X006376Y009661D02*
X006381Y009661D01*
X006367Y009661D02*
X006204Y009661D01*
X006204Y009669D02*
X006367Y009669D01*
X006374Y009678D02*
X006204Y009678D01*
X006204Y009686D02*
X006371Y009686D01*
X006368Y009695D02*
X006204Y009695D01*
X006204Y009703D02*
X006366Y009703D01*
X006364Y009712D02*
X006204Y009712D01*
X006204Y009721D02*
X006363Y009721D01*
X006362Y009729D02*
X006204Y009729D01*
X006204Y009738D02*
X006361Y009738D01*
X006361Y009746D02*
X006204Y009746D01*
X006204Y009755D02*
X006361Y009755D01*
X006361Y009763D02*
X006204Y009763D01*
X006204Y009772D02*
X006361Y009772D01*
X006361Y009780D02*
X006204Y009780D01*
X006204Y009789D02*
X006361Y009789D01*
X006360Y009797D02*
X006204Y009797D01*
X006204Y009806D02*
X006360Y009806D01*
X006360Y009815D02*
X006204Y009815D01*
X006204Y009823D02*
X006360Y009823D01*
X006360Y009832D02*
X006204Y009832D01*
X006204Y009840D02*
X006361Y009840D01*
X006362Y009849D02*
X006204Y009849D01*
X006204Y009857D02*
X006363Y009857D01*
X006364Y009866D02*
X006204Y009866D01*
X006204Y009874D02*
X006367Y009874D01*
X006370Y009883D02*
X006204Y009883D01*
X006204Y009891D02*
X006373Y009891D01*
X006376Y009900D02*
X006204Y009900D01*
X006204Y009909D02*
X006381Y009909D01*
X006386Y009917D02*
X006204Y009917D01*
X006204Y009926D02*
X006391Y009926D01*
X006399Y009934D02*
X006204Y009934D01*
X006204Y009943D02*
X006406Y009943D01*
X006414Y009951D02*
X006204Y009951D01*
X006204Y009960D02*
X006423Y009960D01*
X006434Y009968D02*
X006204Y009968D01*
X006204Y009977D02*
X006445Y009977D01*
X006468Y009985D02*
X006204Y009985D01*
X006204Y009994D02*
X006769Y009994D01*
X006774Y009985D02*
X006546Y009985D01*
X006571Y009977D02*
X006779Y009977D01*
X006783Y009968D02*
X006586Y009968D01*
X006596Y009960D02*
X006788Y009960D01*
X006791Y009951D02*
X006606Y009951D01*
X006616Y009943D02*
X006794Y009943D01*
X006796Y009934D02*
X006623Y009934D01*
X006629Y009926D02*
X006799Y009926D01*
X006802Y009917D02*
X006636Y009917D01*
X006641Y009909D02*
X006804Y009909D01*
X006807Y009900D02*
X006645Y009900D01*
X006649Y009891D02*
X006810Y009891D01*
X006764Y010002D02*
X006204Y010002D01*
X006204Y010011D02*
X006361Y010011D01*
X006756Y010011D01*
X006749Y010020D02*
X006369Y010020D01*
X006377Y010028D02*
X006741Y010028D01*
X006733Y010037D02*
X006385Y010037D01*
X006393Y010045D02*
X006722Y010045D01*
X006711Y010054D02*
X006400Y010054D01*
X006409Y010062D02*
X006700Y010062D01*
X006653Y010088D02*
X006454Y010088D01*
X006434Y010080D02*
X006419Y010071D01*
X006475Y010096D02*
X006631Y010096D01*
X006588Y010105D02*
X006521Y010105D01*
X006357Y010088D02*
X006326Y010088D01*
X006357Y010079D02*
X006281Y010079D01*
X006236Y010071D02*
X006357Y010071D01*
X006357Y010062D02*
X006204Y010062D01*
X006204Y010054D02*
X006357Y010054D01*
X006357Y010045D02*
X006204Y010045D01*
X006204Y010037D02*
X006356Y010037D01*
X006356Y010028D02*
X006204Y010028D01*
X006204Y010020D02*
X006356Y010020D01*
X006104Y009950D02*
X006085Y009936D01*
X006008Y009993D01*
X005842Y010046D01*
X005693Y010001D01*
X005712Y009893D01*
X006037Y009704D01*
X006044Y009690D01*
X006000Y009559D01*
X005838Y009523D01*
X005557Y009671D01*
X005709Y009671D01*
X005709Y009669D01*
X005710Y009648D01*
X005716Y009629D01*
X005727Y009612D01*
X005745Y009594D01*
X005767Y009580D01*
X005791Y009571D01*
X005814Y009568D01*
X005867Y009568D01*
X005892Y009571D01*
X005915Y009579D01*
X005936Y009592D01*
X005948Y009604D01*
X005957Y009618D01*
X006020Y009618D01*
X006015Y009618D02*
X006117Y009618D01*
X006119Y009626D02*
X006122Y009667D01*
X006118Y009708D01*
X006105Y009748D01*
X006095Y009764D01*
X006082Y009778D01*
X006055Y009798D01*
X006025Y009814D01*
X005960Y009838D01*
X005892Y009853D01*
X005812Y009869D01*
X005782Y009880D01*
X005754Y009897D01*
X005742Y009909D01*
X005734Y009925D01*
X005731Y009941D01*
X005733Y009957D01*
X005740Y009972D01*
X005750Y009983D01*
X005763Y009992D01*
X005781Y009998D01*
X005799Y010002D01*
X005833Y010004D01*
X005867Y010002D01*
X005887Y009998D01*
X005907Y009990D01*
X005924Y009979D01*
X005936Y009968D01*
X005945Y009955D01*
X005951Y009940D01*
X005953Y009929D01*
X005954Y009919D01*
X006107Y009919D01*
X006104Y009947D01*
X006023Y009998D01*
X005844Y010050D01*
X005679Y010007D01*
X005700Y009887D01*
X005873Y009784D01*
X006040Y009693D01*
X005997Y009565D01*
X005842Y009530D01*
X005557Y009671D01*
X005558Y009657D01*
X005562Y009634D01*
X005579Y009584D01*
X005733Y009584D01*
X005738Y009575D02*
X005779Y009575D01*
X005767Y009567D02*
X005588Y009567D01*
X005591Y009560D02*
X005608Y009540D01*
X005628Y009523D01*
X005675Y009493D01*
X005709Y009477D01*
X005745Y009469D01*
X005846Y009462D01*
X005898Y009464D01*
X005950Y009471D01*
X005989Y009482D01*
X006026Y009500D01*
X006060Y009524D01*
X005627Y009524D01*
X005616Y009533D02*
X005836Y009533D01*
X005836Y009524D02*
X005844Y009524D01*
X005855Y009533D02*
X006068Y009533D01*
X006077Y009541D02*
X005892Y009541D01*
X005882Y009533D02*
X005819Y009533D01*
X005819Y009541D02*
X005607Y009541D01*
X005600Y009550D02*
X005802Y009550D01*
X005803Y009541D02*
X005921Y009541D01*
X005930Y009550D02*
X006085Y009550D01*
X006088Y009553D02*
X006103Y009575D01*
X006114Y009600D01*
X006119Y009626D01*
X006119Y009627D02*
X006018Y009627D01*
X006023Y009627D02*
X005960Y009627D01*
X005962Y009635D02*
X005957Y009618D01*
X005952Y009609D02*
X006017Y009609D01*
X006012Y009609D02*
X006116Y009609D01*
X006114Y009601D02*
X006009Y009601D01*
X006014Y009601D02*
X005945Y009601D01*
X005937Y009592D02*
X006011Y009592D01*
X006006Y009592D02*
X006110Y009592D01*
X006107Y009584D02*
X006004Y009584D01*
X006009Y009584D02*
X005923Y009584D01*
X005905Y009575D02*
X006006Y009575D01*
X006001Y009575D02*
X006103Y009575D01*
X006098Y009567D02*
X005998Y009567D01*
X006003Y009567D02*
X005755Y009567D01*
X005750Y009575D02*
X005584Y009575D01*
X005579Y009584D02*
X005591Y009560D01*
X005593Y009558D02*
X005785Y009558D01*
X005787Y009550D02*
X005959Y009550D01*
X005968Y009558D02*
X006092Y009558D01*
X006088Y009553D02*
X006060Y009524D01*
X006048Y009516D02*
X005639Y009516D01*
X005653Y009507D02*
X006036Y009507D01*
X006024Y009498D02*
X005666Y009498D01*
X005681Y009490D02*
X006006Y009490D01*
X005987Y009481D02*
X005700Y009481D01*
X005728Y009473D02*
X005957Y009473D01*
X005903Y009464D02*
X005810Y009464D01*
X005771Y009558D02*
X005998Y009558D01*
X006021Y009635D02*
X006120Y009635D01*
X006120Y009644D02*
X006024Y009644D01*
X006029Y009644D02*
X005963Y009644D01*
X005963Y009652D02*
X005962Y009635D01*
X006026Y009635D01*
X006026Y009652D02*
X006121Y009652D01*
X006122Y009661D02*
X006029Y009661D01*
X006034Y009661D02*
X005961Y009661D01*
X005959Y009669D02*
X005963Y009652D01*
X006031Y009652D01*
X006032Y009669D02*
X006122Y009669D01*
X006121Y009678D02*
X006035Y009678D01*
X006040Y009678D02*
X005955Y009678D01*
X005952Y009684D02*
X005959Y009669D01*
X006037Y009669D01*
X006038Y009686D02*
X006120Y009686D01*
X006120Y009695D02*
X006036Y009695D01*
X006042Y009695D02*
X005942Y009695D01*
X005940Y009697D02*
X005952Y009684D01*
X005950Y009686D02*
X006043Y009686D01*
X006037Y009703D02*
X005931Y009703D01*
X005926Y009707D02*
X005940Y009697D01*
X005926Y009707D02*
X005882Y009726D01*
X005835Y009738D01*
X005692Y009772D01*
X005920Y009772D01*
X005911Y009763D02*
X006096Y009763D01*
X006101Y009755D02*
X005926Y009755D01*
X005935Y009763D02*
X005728Y009763D01*
X005764Y009755D02*
X005950Y009755D01*
X005942Y009746D02*
X006106Y009746D01*
X006109Y009738D02*
X005958Y009738D01*
X005964Y009746D02*
X005800Y009746D01*
X005836Y009738D02*
X005979Y009738D01*
X005973Y009729D02*
X006111Y009729D01*
X006114Y009721D02*
X005989Y009721D01*
X005994Y009729D02*
X005868Y009729D01*
X005894Y009721D02*
X006008Y009721D01*
X006005Y009712D02*
X006117Y009712D01*
X006119Y009703D02*
X006021Y009703D01*
X006023Y009712D02*
X005914Y009712D01*
X005895Y009772D02*
X006088Y009772D01*
X006079Y009780D02*
X005879Y009780D01*
X005891Y009789D02*
X005651Y009789D01*
X005660Y009784D02*
X005692Y009772D01*
X005669Y009780D02*
X005905Y009780D01*
X005876Y009797D02*
X005636Y009797D01*
X005631Y009801D02*
X005660Y009784D01*
X005631Y009801D02*
X005604Y009822D01*
X005591Y009837D01*
X005581Y009855D01*
X005575Y009874D01*
X005571Y009919D01*
X005576Y009963D01*
X005590Y010006D01*
X005602Y010026D01*
X005617Y010044D01*
X005636Y010059D01*
X005687Y010084D01*
X005741Y010101D01*
X005797Y010107D01*
X005868Y010107D01*
X005923Y010101D01*
X005976Y010087D01*
X006019Y010066D01*
X006057Y010036D01*
X006071Y010020D01*
X006082Y010003D01*
X006096Y009972D01*
X006104Y009950D01*
X006104Y009951D02*
X006064Y009951D01*
X006053Y009960D02*
X006101Y009960D01*
X006097Y009968D02*
X006041Y009968D01*
X006030Y009977D02*
X006094Y009977D01*
X006090Y009985D02*
X006018Y009985D01*
X006029Y009994D02*
X005897Y009994D01*
X005914Y009985D02*
X006043Y009985D01*
X006056Y009977D02*
X005926Y009977D01*
X005935Y009968D02*
X006070Y009968D01*
X006084Y009960D02*
X005941Y009960D01*
X005946Y009951D02*
X006097Y009951D01*
X006094Y009943D02*
X006076Y009943D01*
X006105Y009943D02*
X005950Y009943D01*
X005952Y009934D02*
X006106Y009934D01*
X006106Y009926D02*
X005954Y009926D01*
X005978Y010002D02*
X006082Y010002D01*
X006086Y009994D02*
X006005Y009994D01*
X006007Y010002D02*
X005854Y010002D01*
X005871Y010037D02*
X006056Y010037D01*
X006064Y010028D02*
X005897Y010028D01*
X005889Y010037D02*
X005794Y010037D01*
X005784Y010028D02*
X005603Y010028D01*
X005598Y010020D02*
X005755Y010020D01*
X005761Y010028D02*
X005919Y010028D01*
X005924Y010020D02*
X006071Y010020D01*
X006077Y010011D02*
X005951Y010011D01*
X005948Y010020D02*
X005728Y010020D01*
X005727Y010011D02*
X005593Y010011D01*
X005589Y010002D02*
X005699Y010002D01*
X005694Y009994D02*
X005586Y009994D01*
X005583Y009985D02*
X005696Y009985D01*
X005697Y009977D02*
X005581Y009977D01*
X005578Y009968D02*
X005699Y009968D01*
X005700Y009960D02*
X005576Y009960D01*
X005575Y009951D02*
X005702Y009951D01*
X005703Y009943D02*
X005574Y009943D01*
X005573Y009934D02*
X005705Y009934D01*
X005706Y009926D02*
X005572Y009926D01*
X005571Y009917D02*
X005708Y009917D01*
X005709Y009909D02*
X005572Y009909D01*
X005573Y009900D02*
X005711Y009900D01*
X005715Y009891D02*
X005573Y009891D01*
X005574Y009883D02*
X005729Y009883D01*
X005721Y009874D02*
X005797Y009874D01*
X005777Y009883D02*
X005707Y009883D01*
X005699Y009891D02*
X005763Y009891D01*
X005751Y009900D02*
X005698Y009900D01*
X005696Y009909D02*
X005743Y009909D01*
X005738Y009917D02*
X005695Y009917D01*
X005693Y009926D02*
X005734Y009926D01*
X005733Y009934D02*
X005692Y009934D01*
X005690Y009943D02*
X005732Y009943D01*
X005733Y009951D02*
X005689Y009951D01*
X005687Y009960D02*
X005735Y009960D01*
X005739Y009968D02*
X005686Y009968D01*
X005684Y009977D02*
X005745Y009977D01*
X005753Y009985D02*
X005683Y009985D01*
X005681Y009994D02*
X005769Y009994D01*
X005813Y010002D02*
X005680Y010002D01*
X005695Y010011D02*
X005978Y010011D01*
X006009Y010071D02*
X005660Y010071D01*
X005677Y010079D02*
X005991Y010079D01*
X005972Y010088D02*
X005698Y010088D01*
X005727Y010096D02*
X005941Y010096D01*
X005886Y010105D02*
X005781Y010105D01*
X005812Y010037D02*
X005611Y010037D01*
X005619Y010045D02*
X005840Y010045D01*
X005844Y010045D02*
X006045Y010045D01*
X006034Y010054D02*
X005630Y010054D01*
X005643Y010062D02*
X006024Y010062D01*
X005860Y010045D02*
X005826Y010045D01*
X005827Y009866D02*
X005735Y009866D01*
X005744Y009874D02*
X005575Y009874D01*
X005578Y009866D02*
X005759Y009866D01*
X005750Y009857D02*
X005870Y009857D01*
X005911Y009849D02*
X005764Y009849D01*
X005773Y009857D02*
X005580Y009857D01*
X005584Y009849D02*
X005788Y009849D01*
X005778Y009840D02*
X005949Y009840D01*
X005977Y009832D02*
X005793Y009832D01*
X005803Y009840D02*
X005589Y009840D01*
X005596Y009832D02*
X005817Y009832D01*
X005807Y009823D02*
X006000Y009823D01*
X006023Y009815D02*
X005821Y009815D01*
X005832Y009823D02*
X005603Y009823D01*
X005613Y009815D02*
X005847Y009815D01*
X005836Y009806D02*
X006040Y009806D01*
X006055Y009797D02*
X005850Y009797D01*
X005861Y009806D02*
X005624Y009806D01*
X005560Y009669D02*
X005557Y009669D01*
X005560Y009669D02*
X005709Y009669D01*
X005710Y009661D02*
X005576Y009661D01*
X005577Y009661D02*
X005558Y009661D01*
X005559Y009652D02*
X005595Y009652D01*
X005592Y009652D02*
X005710Y009652D01*
X005712Y009644D02*
X005609Y009644D01*
X005612Y009644D02*
X005560Y009644D01*
X005562Y009635D02*
X005629Y009635D01*
X005625Y009635D02*
X005715Y009635D01*
X005718Y009627D02*
X005641Y009627D01*
X005647Y009627D02*
X005565Y009627D01*
X005567Y009618D02*
X005664Y009618D01*
X005657Y009618D02*
X005723Y009618D01*
X005729Y009609D02*
X005674Y009609D01*
X005681Y009609D02*
X005570Y009609D01*
X005573Y009601D02*
X005698Y009601D01*
X005690Y009601D02*
X005738Y009601D01*
X005747Y009592D02*
X005706Y009592D01*
X005716Y009592D02*
X005576Y009592D01*
X005722Y009584D02*
X005761Y009584D01*
X005864Y009789D02*
X006067Y009789D01*
X006204Y009652D02*
X006367Y009652D01*
X006367Y009644D02*
X006204Y009644D01*
X006204Y009635D02*
X006367Y009635D01*
X006367Y009627D02*
X006204Y009627D01*
X006204Y009618D02*
X006367Y009618D01*
X006367Y009609D02*
X006204Y009609D01*
X006204Y009601D02*
X006367Y009601D01*
X006367Y009592D02*
X006204Y009592D01*
X006204Y009584D02*
X006367Y009584D01*
X006367Y009575D02*
X006204Y009575D01*
X006204Y009567D02*
X006367Y009567D01*
X006367Y009558D02*
X006204Y009558D01*
X006204Y009550D02*
X006367Y009550D01*
X006367Y009541D02*
X006204Y009541D01*
X006204Y009533D02*
X006367Y009533D01*
X006367Y009524D02*
X006204Y009524D01*
X006204Y009516D02*
X006367Y009516D01*
X006367Y009507D02*
X006204Y009507D01*
X006204Y009498D02*
X006367Y009498D01*
X006367Y009490D02*
X006204Y009490D01*
X006204Y009481D02*
X006367Y009481D01*
X006367Y009473D02*
X006204Y009473D01*
X006204Y009464D02*
X006367Y009464D01*
X006367Y009456D02*
X006204Y009456D01*
X006204Y009447D02*
X006367Y009447D01*
X006367Y009439D02*
X006204Y009439D01*
X006204Y009430D02*
X006367Y009430D01*
X006367Y009422D02*
X006204Y009422D01*
X006204Y009413D02*
X006367Y009413D01*
X006367Y009404D02*
X006204Y009404D01*
X006204Y009396D02*
X006367Y009396D01*
X006367Y009387D02*
X006204Y009387D01*
X006204Y009379D02*
X006367Y009379D01*
X006367Y009370D02*
X006204Y009370D01*
X006204Y009362D02*
X006367Y009362D01*
X006367Y009353D02*
X006204Y009353D01*
X006204Y009345D02*
X006367Y009345D01*
X006367Y009336D02*
X006204Y009336D01*
X006204Y009328D02*
X006367Y009328D01*
X006367Y009319D02*
X006204Y009319D01*
X006204Y009310D02*
X006367Y009310D01*
X006367Y009302D02*
X006204Y009302D01*
X006204Y009293D02*
X006367Y009293D01*
X006367Y009285D02*
X006204Y009285D01*
X006204Y009276D02*
X006367Y009276D01*
X006367Y009268D02*
X006204Y009268D01*
X006204Y009259D02*
X006367Y009259D01*
X006367Y009251D02*
X006209Y009251D01*
X006218Y009242D02*
X006367Y009242D01*
X006367Y009234D02*
X006228Y009234D01*
X006237Y009225D02*
X006367Y009225D01*
X006367Y009216D02*
X006247Y009216D01*
X006256Y009208D02*
X006367Y009208D01*
X006367Y009199D02*
X006266Y009199D01*
X006275Y009191D02*
X006367Y009191D01*
X006367Y009182D02*
X006285Y009182D01*
X006294Y009174D02*
X006367Y009174D01*
X006367Y009165D02*
X006303Y009165D01*
X006313Y009157D02*
X006367Y009157D01*
X006367Y009148D02*
X006322Y009148D01*
X006332Y009140D02*
X006367Y009140D01*
X006367Y009131D02*
X006341Y009131D01*
X006351Y009123D02*
X006367Y009123D01*
X006367Y009114D02*
X006360Y009114D01*
X006903Y009567D02*
X007179Y009567D01*
X007118Y009569D01*
X007094Y009575D02*
X006900Y009575D01*
X006897Y009584D02*
X007078Y009584D01*
X007068Y009592D02*
X006894Y009592D01*
X006893Y009601D02*
X007061Y009601D01*
X007056Y009609D02*
X006891Y009609D01*
X006890Y009618D02*
X007052Y009618D01*
X007050Y009627D02*
X006888Y009627D01*
X006888Y009635D02*
X007049Y009635D01*
X007049Y009644D02*
X006888Y009644D01*
X006888Y009652D02*
X007049Y009652D01*
X007050Y009661D02*
X006888Y009661D01*
X006892Y009686D02*
X007057Y009686D01*
X007060Y009695D02*
X006894Y009695D01*
X006896Y009703D02*
X007065Y009703D01*
X007070Y009712D02*
X006899Y009712D01*
X006903Y009721D02*
X007080Y009721D01*
X007093Y009729D02*
X006907Y009729D01*
X006912Y009738D02*
X007110Y009738D01*
X007142Y009746D02*
X006918Y009746D01*
X006925Y009755D02*
X007213Y009755D01*
X007254Y009763D02*
X006931Y009763D01*
X006941Y009772D02*
X007281Y009772D01*
X007293Y009780D02*
X006952Y009780D01*
X006965Y009789D02*
X007461Y009789D01*
X007461Y009797D02*
X006982Y009797D01*
X007006Y009806D02*
X007461Y009806D01*
X007461Y009815D02*
X007032Y009815D01*
X007072Y009823D02*
X007461Y009823D01*
X007461Y009832D02*
X007130Y009832D01*
X007204Y009840D02*
X007461Y009840D01*
X007461Y009849D02*
X007248Y009849D01*
X007268Y009857D02*
X007461Y009857D01*
X007461Y009866D02*
X007281Y009866D01*
X007291Y009874D02*
X007461Y009874D01*
X007461Y009883D02*
X007296Y009883D01*
X007298Y009891D02*
X007461Y009891D01*
X007461Y009900D02*
X007300Y009900D01*
X007301Y009909D02*
X007461Y009909D01*
X007461Y009917D02*
X007301Y009917D01*
X007301Y009926D02*
X007461Y009926D01*
X007461Y009934D02*
X007299Y009934D01*
X007297Y009943D02*
X007461Y009943D01*
X007461Y009951D02*
X007295Y009951D01*
X007291Y009960D02*
X007461Y009960D01*
X007461Y009955D02*
X007458Y009984D01*
X007458Y009977D02*
X007279Y009977D01*
X007286Y009968D02*
X007459Y009968D01*
X007461Y009955D02*
X007461Y009765D01*
X007461Y009772D02*
X007301Y009772D01*
X007301Y009780D02*
X007461Y009780D01*
X007569Y009943D02*
X007820Y009943D01*
X007842Y009951D02*
X007569Y009951D01*
X007569Y009960D02*
X007961Y009960D01*
X007961Y009968D02*
X007569Y009968D01*
X007901Y010105D02*
X007921Y010105D01*
X007958Y009951D02*
X007961Y009951D01*
X008035Y009857D02*
X008386Y009857D01*
X008392Y009849D02*
X008035Y009849D01*
X008035Y009840D02*
X008398Y009840D01*
X008403Y009832D02*
X008035Y009832D01*
X008035Y009823D02*
X008409Y009823D01*
X008415Y009815D02*
X008035Y009815D01*
X008035Y009806D02*
X008420Y009806D01*
X008426Y009797D02*
X008035Y009797D01*
X008035Y009789D02*
X008432Y009789D01*
X008437Y009780D02*
X008035Y009780D01*
X008035Y009772D02*
X008443Y009772D01*
X008449Y009763D02*
X008035Y009763D01*
X008035Y009755D02*
X008270Y009755D01*
X008272Y009755D02*
X008454Y009755D01*
X008460Y009746D02*
X008277Y009746D01*
X008282Y009738D02*
X008466Y009738D01*
X008472Y009729D02*
X008288Y009729D01*
X008293Y009721D02*
X008477Y009721D01*
X008483Y009712D02*
X008298Y009712D01*
X008303Y009703D02*
X008489Y009703D01*
X008494Y009695D02*
X008308Y009695D01*
X008313Y009686D02*
X008500Y009686D01*
X008506Y009678D02*
X008319Y009678D01*
X008324Y009669D02*
X008511Y009669D01*
X008517Y009661D02*
X008329Y009661D01*
X008334Y009652D02*
X008523Y009652D01*
X008529Y009644D02*
X008339Y009644D01*
X008345Y009635D02*
X008534Y009635D01*
X008540Y009627D02*
X008350Y009627D01*
X008355Y009618D02*
X008546Y009618D01*
X008551Y009609D02*
X008360Y009609D01*
X008365Y009601D02*
X008557Y009601D01*
X008563Y009592D02*
X008370Y009592D01*
X008376Y009584D02*
X008568Y009584D01*
X008574Y009575D02*
X008381Y009575D01*
X008386Y009567D02*
X008580Y009567D01*
X008586Y009558D02*
X008391Y009558D01*
X008396Y009550D02*
X008591Y009550D01*
X008597Y009541D02*
X008402Y009541D01*
X008407Y009533D02*
X008603Y009533D01*
X008608Y009524D02*
X008412Y009524D01*
X008417Y009516D02*
X008614Y009516D01*
X008620Y009507D02*
X008422Y009507D01*
X008427Y009498D02*
X008625Y009498D01*
X008631Y009490D02*
X008433Y009490D01*
X008438Y009481D02*
X008637Y009481D01*
X008754Y009490D02*
X008918Y009490D01*
X008918Y009498D02*
X008754Y009498D01*
X008754Y009507D02*
X008918Y009507D01*
X008918Y009516D02*
X008754Y009516D01*
X008754Y009524D02*
X008918Y009524D01*
X008918Y009533D02*
X008754Y009533D01*
X008754Y009541D02*
X008918Y009541D01*
X008918Y009550D02*
X008754Y009550D01*
X008754Y009558D02*
X008918Y009558D01*
X008918Y009567D02*
X008754Y009567D01*
X008754Y009575D02*
X008918Y009575D01*
X008918Y009584D02*
X008754Y009584D01*
X008754Y009592D02*
X008918Y009592D01*
X008918Y009601D02*
X008754Y009601D01*
X008754Y009609D02*
X008918Y009609D01*
X008918Y009618D02*
X008754Y009618D01*
X008754Y009627D02*
X008918Y009627D01*
X008918Y009635D02*
X008754Y009635D01*
X008754Y009644D02*
X008918Y009644D01*
X008918Y009652D02*
X008754Y009652D01*
X008754Y009661D02*
X008918Y009661D01*
X008918Y009669D02*
X008754Y009669D01*
X008754Y009678D02*
X008918Y009678D01*
X008918Y009686D02*
X008754Y009686D01*
X008754Y009695D02*
X008918Y009695D01*
X008918Y009703D02*
X008754Y009703D01*
X008754Y009712D02*
X008918Y009712D01*
X008918Y009721D02*
X008754Y009721D01*
X008754Y009729D02*
X008918Y009729D01*
X008918Y009738D02*
X008754Y009738D01*
X008754Y009746D02*
X008918Y009746D01*
X008918Y009755D02*
X008754Y009755D01*
X008754Y009763D02*
X008918Y009763D01*
X008918Y009772D02*
X008754Y009772D01*
X008754Y009780D02*
X008918Y009780D01*
X008918Y009789D02*
X008754Y009789D01*
X008754Y009797D02*
X008918Y009797D01*
X008918Y009806D02*
X008754Y009806D01*
X008754Y009815D02*
X008918Y009815D01*
X008918Y009823D02*
X008754Y009823D01*
X008754Y009832D02*
X008918Y009832D01*
X008918Y009840D02*
X008754Y009840D01*
X008754Y009849D02*
X008918Y009849D01*
X008918Y009857D02*
X008754Y009857D01*
X008754Y009866D02*
X008918Y009866D01*
X008918Y009874D02*
X008754Y009874D01*
X008754Y009883D02*
X008918Y009883D01*
X008918Y009891D02*
X008754Y009891D01*
X008754Y009900D02*
X008918Y009900D01*
X008918Y009909D02*
X008754Y009909D01*
X008754Y009917D02*
X008918Y009917D01*
X008918Y009926D02*
X008754Y009926D01*
X008754Y009934D02*
X008918Y009934D01*
X008918Y009943D02*
X008754Y009943D01*
X008754Y009951D02*
X008918Y009951D01*
X008918Y009960D02*
X008754Y009960D01*
X008754Y009968D02*
X008918Y009968D01*
X008754Y009977D02*
X008754Y009985D01*
X008261Y009746D02*
X008035Y009746D01*
X008035Y009738D02*
X008252Y009738D01*
X008244Y009729D02*
X008035Y009729D01*
X008035Y009721D02*
X008235Y009721D01*
X008226Y009712D02*
X008035Y009712D01*
X008035Y009703D02*
X008217Y009703D01*
X008209Y009695D02*
X008035Y009695D01*
X008035Y009686D02*
X008200Y009686D01*
X008200Y009678D02*
X008035Y009678D01*
X008035Y009669D02*
X008200Y009669D01*
X008200Y009661D02*
X008035Y009661D01*
X008035Y009652D02*
X008200Y009652D01*
X008200Y009644D02*
X008035Y009644D01*
X008035Y009635D02*
X008200Y009635D01*
X008200Y009627D02*
X008035Y009627D01*
X008035Y009618D02*
X008200Y009618D01*
X008200Y009609D02*
X008035Y009609D01*
X008035Y009601D02*
X008200Y009601D01*
X008200Y009592D02*
X008035Y009592D01*
X008035Y009584D02*
X008200Y009584D01*
X008200Y009575D02*
X008035Y009575D01*
X008035Y009567D02*
X008200Y009567D01*
X008200Y009558D02*
X008035Y009558D01*
X008035Y009550D02*
X008200Y009550D01*
X008200Y009541D02*
X008035Y009541D01*
X008035Y009533D02*
X008200Y009533D01*
X008200Y009524D02*
X008035Y009524D01*
X008035Y009516D02*
X008200Y009516D01*
X008200Y009507D02*
X008035Y009507D01*
X008035Y009498D02*
X008200Y009498D01*
X008200Y009490D02*
X008035Y009490D01*
X008035Y009481D02*
X008200Y009481D01*
X008200Y009473D02*
X008036Y009473D01*
X011815Y009656D02*
X011828Y009684D01*
X011838Y009715D01*
X011844Y009746D01*
X011846Y009778D01*
X011552Y009656D02*
X011542Y009677D01*
X011534Y009699D01*
X011528Y009722D01*
X011525Y009746D01*
X011403Y009601D02*
X011417Y009579D01*
X011435Y009560D01*
X011454Y009542D01*
X011552Y009655D02*
X011563Y009639D01*
X011576Y009624D01*
X011591Y009611D01*
X011608Y009601D01*
X011626Y009593D01*
X011758Y009602D02*
X011775Y009612D01*
X011791Y009625D01*
X011804Y009640D01*
X011815Y009656D01*
X011976Y009639D02*
X011964Y009612D01*
X011949Y009587D01*
X011932Y009564D01*
X011912Y009543D01*
X011890Y009525D01*
X011866Y009508D01*
X011840Y009495D01*
X011813Y009484D01*
X012076Y009481D02*
X012246Y009481D01*
X012246Y009477D02*
X012076Y009477D01*
X012076Y010109D01*
X012233Y010109D01*
X012233Y010022D01*
X012242Y010024D01*
X012255Y010041D01*
X012285Y010072D01*
X012315Y010096D01*
X012350Y010112D01*
X012393Y010122D01*
X012447Y010127D01*
X012485Y010124D01*
X012521Y010114D01*
X012552Y010098D01*
X012580Y010076D01*
X012603Y010050D01*
X012620Y010020D01*
X012622Y010020D01*
X012624Y010021D01*
X012627Y010025D01*
X012645Y010044D01*
X012676Y010074D01*
X012711Y010099D01*
X012743Y010114D01*
X012777Y010123D01*
X012812Y010126D01*
X012863Y010122D01*
X012912Y010112D01*
X012946Y010099D01*
X012977Y010079D01*
X013002Y010053D01*
X013025Y010016D01*
X013041Y009975D01*
X013047Y009932D01*
X013047Y009476D01*
X012880Y009476D01*
X012880Y009881D01*
X012876Y009916D01*
X012863Y009950D01*
X012852Y009966D01*
X012838Y009979D01*
X012821Y009988D01*
X012802Y009994D01*
X012766Y009997D01*
X012729Y009993D01*
X012712Y009988D01*
X012696Y009979D01*
X012683Y009967D01*
X012667Y009945D01*
X012656Y009921D01*
X012650Y009895D01*
X012647Y009851D01*
X012647Y009476D01*
X012477Y009476D01*
X012477Y009892D01*
X012474Y009919D01*
X012464Y009944D01*
X012449Y009967D01*
X012435Y009980D01*
X012418Y009990D01*
X012399Y009995D01*
X012379Y009997D01*
X012345Y009995D01*
X012327Y009991D01*
X012310Y009984D01*
X012295Y009973D01*
X012262Y009935D01*
X012250Y009913D01*
X012245Y009888D01*
X012246Y009863D01*
X012246Y009477D01*
X012246Y009490D02*
X012076Y009490D01*
X012076Y009498D02*
X012246Y009498D01*
X012246Y009507D02*
X012076Y009507D01*
X012076Y009516D02*
X012246Y009516D01*
X012246Y009524D02*
X012076Y009524D01*
X012076Y009533D02*
X012246Y009533D01*
X012246Y009541D02*
X012076Y009541D01*
X012076Y009550D02*
X012246Y009550D01*
X012246Y009558D02*
X012076Y009558D01*
X012076Y009567D02*
X012246Y009567D01*
X012246Y009575D02*
X012076Y009575D01*
X012076Y009584D02*
X012246Y009584D01*
X012246Y009592D02*
X012076Y009592D01*
X012076Y009601D02*
X012246Y009601D01*
X012246Y009609D02*
X012076Y009609D01*
X012076Y009618D02*
X012246Y009618D01*
X012246Y009627D02*
X012076Y009627D01*
X012076Y009635D02*
X012246Y009635D01*
X012246Y009644D02*
X012076Y009644D01*
X012076Y009652D02*
X012246Y009652D01*
X012246Y009661D02*
X012076Y009661D01*
X012076Y009669D02*
X012246Y009669D01*
X012246Y009678D02*
X012076Y009678D01*
X012076Y009686D02*
X012246Y009686D01*
X012246Y009695D02*
X012076Y009695D01*
X012076Y009703D02*
X012246Y009703D01*
X012246Y009712D02*
X012076Y009712D01*
X012076Y009721D02*
X012246Y009721D01*
X012246Y009729D02*
X012076Y009729D01*
X012076Y009738D02*
X012246Y009738D01*
X012246Y009746D02*
X012076Y009746D01*
X012076Y009755D02*
X012246Y009755D01*
X012246Y009763D02*
X012076Y009763D01*
X012076Y009772D02*
X012246Y009772D01*
X012246Y009780D02*
X012076Y009780D01*
X012076Y009789D02*
X012246Y009789D01*
X012246Y009797D02*
X012076Y009797D01*
X012076Y009806D02*
X012246Y009806D01*
X012246Y009815D02*
X012076Y009815D01*
X012076Y009823D02*
X012246Y009823D01*
X012246Y009832D02*
X012076Y009832D01*
X012076Y009840D02*
X012246Y009840D01*
X012246Y009849D02*
X012076Y009849D01*
X012076Y009857D02*
X012246Y009857D01*
X012246Y009866D02*
X012076Y009866D01*
X012076Y009874D02*
X012246Y009874D01*
X012245Y009883D02*
X012076Y009883D01*
X012076Y009891D02*
X012246Y009891D01*
X012248Y009900D02*
X012076Y009900D01*
X012076Y009909D02*
X012250Y009909D01*
X012253Y009917D02*
X012076Y009917D01*
X012076Y009926D02*
X012257Y009926D01*
X012262Y009934D02*
X012076Y009934D01*
X012076Y009943D02*
X012269Y009943D01*
X012276Y009951D02*
X012076Y009951D01*
X012076Y009960D02*
X012284Y009960D01*
X012291Y009968D02*
X012076Y009968D01*
X012076Y009977D02*
X012301Y009977D01*
X012313Y009985D02*
X012076Y009985D01*
X012076Y009994D02*
X012341Y009994D01*
X012404Y009994D02*
X012740Y009994D01*
X012708Y009985D02*
X012425Y009985D01*
X012438Y009977D02*
X012694Y009977D01*
X012685Y009968D02*
X012447Y009968D01*
X012454Y009960D02*
X012678Y009960D01*
X012672Y009951D02*
X012460Y009951D01*
X012465Y009943D02*
X012666Y009943D01*
X012662Y009934D02*
X012468Y009934D01*
X012471Y009926D02*
X012658Y009926D01*
X012655Y009917D02*
X012474Y009917D01*
X012475Y009909D02*
X012653Y009909D01*
X012651Y009900D02*
X012476Y009900D01*
X012477Y009891D02*
X012650Y009891D01*
X012649Y009883D02*
X012477Y009883D01*
X012477Y009874D02*
X012649Y009874D01*
X012648Y009866D02*
X012477Y009866D01*
X012477Y009857D02*
X012648Y009857D01*
X012647Y009849D02*
X012477Y009849D01*
X012477Y009840D02*
X012647Y009840D01*
X012647Y009832D02*
X012477Y009832D01*
X012477Y009823D02*
X012647Y009823D01*
X012647Y009815D02*
X012477Y009815D01*
X012477Y009806D02*
X012647Y009806D01*
X012647Y009797D02*
X012477Y009797D01*
X012477Y009789D02*
X012647Y009789D01*
X012647Y009780D02*
X012477Y009780D01*
X012477Y009772D02*
X012647Y009772D01*
X012647Y009763D02*
X012477Y009763D01*
X012477Y009755D02*
X012647Y009755D01*
X012647Y009746D02*
X012477Y009746D01*
X012477Y009738D02*
X012647Y009738D01*
X012647Y009729D02*
X012477Y009729D01*
X012477Y009721D02*
X012647Y009721D01*
X012647Y009712D02*
X012477Y009712D01*
X012477Y009703D02*
X012647Y009703D01*
X012647Y009695D02*
X012477Y009695D01*
X012477Y009686D02*
X012647Y009686D01*
X012647Y009678D02*
X012477Y009678D01*
X012477Y009669D02*
X012647Y009669D01*
X012647Y009661D02*
X012477Y009661D01*
X012477Y009652D02*
X012647Y009652D01*
X012647Y009644D02*
X012477Y009644D01*
X012477Y009635D02*
X012647Y009635D01*
X012647Y009627D02*
X012477Y009627D01*
X012477Y009618D02*
X012647Y009618D01*
X012647Y009609D02*
X012477Y009609D01*
X012477Y009601D02*
X012647Y009601D01*
X012647Y009592D02*
X012477Y009592D01*
X012477Y009584D02*
X012647Y009584D01*
X012647Y009575D02*
X012477Y009575D01*
X012477Y009567D02*
X012647Y009567D01*
X012647Y009558D02*
X012477Y009558D01*
X012477Y009550D02*
X012647Y009550D01*
X012647Y009541D02*
X012477Y009541D01*
X012477Y009533D02*
X012647Y009533D01*
X012647Y009524D02*
X012477Y009524D01*
X012477Y009516D02*
X012647Y009516D01*
X012647Y009507D02*
X012477Y009507D01*
X012477Y009498D02*
X012647Y009498D01*
X012647Y009490D02*
X012477Y009490D01*
X012477Y009481D02*
X012647Y009481D01*
X012880Y009481D02*
X013047Y009481D01*
X013047Y009490D02*
X012880Y009490D01*
X012880Y009498D02*
X013047Y009498D01*
X013047Y009507D02*
X012880Y009507D01*
X012880Y009516D02*
X013047Y009516D01*
X013047Y009524D02*
X012880Y009524D01*
X012880Y009533D02*
X013047Y009533D01*
X013047Y009541D02*
X012880Y009541D01*
X012880Y009550D02*
X013047Y009550D01*
X013047Y009558D02*
X012880Y009558D01*
X012880Y009567D02*
X013047Y009567D01*
X013047Y009575D02*
X012880Y009575D01*
X012880Y009584D02*
X013047Y009584D01*
X013047Y009592D02*
X012880Y009592D01*
X012880Y009601D02*
X013047Y009601D01*
X013047Y009609D02*
X012880Y009609D01*
X012880Y009618D02*
X013047Y009618D01*
X013047Y009627D02*
X012880Y009627D01*
X012880Y009635D02*
X013047Y009635D01*
X013047Y009644D02*
X012880Y009644D01*
X012880Y009652D02*
X013047Y009652D01*
X013047Y009661D02*
X012880Y009661D01*
X012880Y009669D02*
X013047Y009669D01*
X013047Y009678D02*
X012880Y009678D01*
X012880Y009686D02*
X013047Y009686D01*
X013047Y009695D02*
X012880Y009695D01*
X012880Y009703D02*
X013047Y009703D01*
X013047Y009712D02*
X012880Y009712D01*
X012880Y009721D02*
X013047Y009721D01*
X013047Y009729D02*
X012880Y009729D01*
X012880Y009738D02*
X013047Y009738D01*
X013047Y009746D02*
X012880Y009746D01*
X012880Y009755D02*
X013047Y009755D01*
X013047Y009763D02*
X012880Y009763D01*
X012880Y009772D02*
X013047Y009772D01*
X013047Y009780D02*
X012880Y009780D01*
X012880Y009789D02*
X013047Y009789D01*
X013047Y009797D02*
X012880Y009797D01*
X012880Y009806D02*
X013047Y009806D01*
X013047Y009815D02*
X012880Y009815D01*
X012880Y009823D02*
X013047Y009823D01*
X013047Y009832D02*
X012880Y009832D01*
X012880Y009840D02*
X013047Y009840D01*
X013047Y009849D02*
X012880Y009849D01*
X012880Y009857D02*
X013047Y009857D01*
X013047Y009866D02*
X012880Y009866D01*
X012880Y009874D02*
X013047Y009874D01*
X013047Y009883D02*
X012880Y009883D01*
X012879Y009891D02*
X013047Y009891D01*
X013047Y009900D02*
X012878Y009900D01*
X012877Y009909D02*
X013047Y009909D01*
X013047Y009917D02*
X012876Y009917D01*
X012872Y009926D02*
X013047Y009926D01*
X013047Y009934D02*
X012869Y009934D01*
X012866Y009943D02*
X013045Y009943D01*
X013044Y009951D02*
X012862Y009951D01*
X012856Y009960D02*
X013043Y009960D01*
X013041Y009968D02*
X012849Y009968D01*
X012840Y009977D02*
X013040Y009977D01*
X013037Y009985D02*
X012826Y009985D01*
X012800Y009994D02*
X013033Y009994D01*
X013030Y010002D02*
X012076Y010002D01*
X012076Y010011D02*
X013027Y010011D01*
X013023Y010020D02*
X012076Y010020D01*
X012076Y010028D02*
X012233Y010028D01*
X012233Y010037D02*
X012076Y010037D01*
X012076Y010045D02*
X012233Y010045D01*
X012233Y010054D02*
X012076Y010054D01*
X012076Y010062D02*
X012233Y010062D01*
X012233Y010071D02*
X012076Y010071D01*
X012076Y010079D02*
X012233Y010079D01*
X012233Y010088D02*
X012076Y010088D01*
X012076Y010096D02*
X012233Y010096D01*
X012233Y010105D02*
X012076Y010105D01*
X012245Y010028D02*
X012615Y010028D01*
X012610Y010037D02*
X012252Y010037D01*
X012259Y010045D02*
X012605Y010045D01*
X012599Y010054D02*
X012268Y010054D01*
X012276Y010062D02*
X012592Y010062D01*
X012585Y010071D02*
X012284Y010071D01*
X012295Y010079D02*
X012576Y010079D01*
X012565Y010088D02*
X012305Y010088D01*
X012316Y010096D02*
X012554Y010096D01*
X012538Y010105D02*
X012335Y010105D01*
X012358Y010114D02*
X012522Y010114D01*
X012492Y010122D02*
X012396Y010122D01*
X012630Y010028D02*
X013018Y010028D01*
X013012Y010037D02*
X012638Y010037D01*
X012647Y010045D02*
X013007Y010045D01*
X013001Y010054D02*
X012655Y010054D01*
X012664Y010062D02*
X012993Y010062D01*
X012985Y010071D02*
X012673Y010071D01*
X012684Y010079D02*
X012976Y010079D01*
X012963Y010088D02*
X012696Y010088D01*
X012708Y010096D02*
X012950Y010096D01*
X012930Y010105D02*
X012724Y010105D01*
X012741Y010114D02*
X012903Y010114D01*
X012856Y010122D02*
X012772Y010122D01*
X011525Y009843D02*
X011523Y009810D01*
X011523Y009778D01*
X011526Y009746D01*
X011836Y009877D02*
X011828Y009902D01*
X011817Y009926D01*
X011803Y009948D01*
X011786Y009969D01*
X011773Y009979D01*
X011760Y009988D01*
X011745Y009995D01*
X011813Y009485D02*
X011778Y009475D01*
X011743Y009468D01*
X011707Y009464D01*
X011671Y009463D01*
X011626Y009593D02*
X011648Y009587D01*
X011670Y009584D01*
X011693Y009584D01*
X011715Y009587D01*
X011737Y009593D01*
X011758Y009601D01*
X011403Y009601D02*
X011388Y009629D01*
X011376Y009658D01*
X011367Y009688D01*
X011360Y009718D01*
X011361Y009868D02*
X011368Y009901D01*
X011379Y009932D01*
X011394Y009962D01*
X011411Y009991D01*
X011432Y010017D01*
X011455Y010041D01*
X011480Y010062D01*
X011508Y010081D01*
X011567Y009955D02*
X011580Y009969D01*
X011594Y009981D01*
X011610Y009990D01*
X011628Y009997D01*
X011646Y010002D01*
X011665Y010003D01*
X011776Y010119D02*
X011803Y010111D01*
X011830Y010100D01*
X011855Y010087D01*
X011880Y010071D01*
X011902Y010053D01*
X011567Y009955D02*
X011554Y009935D01*
X011542Y009913D01*
X011534Y009891D01*
X011528Y009867D01*
X011525Y009843D01*
X011454Y009542D02*
X011481Y009522D01*
X011510Y009505D01*
X011540Y009490D01*
X011572Y009479D01*
X011604Y009470D01*
X011637Y009465D01*
X011671Y009463D01*
X011776Y010119D02*
X011747Y010125D01*
X011718Y010129D01*
X011688Y010130D01*
X011902Y010053D02*
X011926Y010029D01*
X011948Y010003D01*
X011967Y009975D01*
X011982Y009945D01*
X011995Y009913D01*
X012003Y009880D01*
X012008Y009847D01*
X012010Y009813D01*
X011674Y010130D02*
X011639Y010127D01*
X011605Y010120D01*
X011571Y010110D01*
X011539Y010097D01*
X011508Y010081D01*
X011682Y010005D02*
X011703Y010004D01*
X011724Y010001D01*
X011744Y009995D01*
X010092Y009982D02*
X010048Y009980D01*
D14*
X010542Y009568D03*
M02*
