G75*
G70*
%OFA0B0*%
%FSLAX24Y24*%
%IPPOS*%
%LPD*%
%AMOC8*
5,1,8,0,0,1.08239X$1,22.5*
%
%ADD10C,0.0000*%
%ADD11R,0.0394X0.0433*%
%ADD12R,0.0630X0.0551*%
%ADD13C,0.0560*%
%ADD14C,0.1300*%
%ADD15C,0.0600*%
%ADD16R,0.0550X0.0137*%
%ADD17C,0.0100*%
%ADD18C,0.0400*%
D10*
X001552Y000101D02*
X001552Y012101D01*
X016552Y012101D01*
X016552Y000101D01*
X001552Y000101D01*
X002402Y001601D02*
X002404Y001651D01*
X002410Y001701D01*
X002420Y001751D01*
X002433Y001799D01*
X002450Y001847D01*
X002471Y001893D01*
X002495Y001937D01*
X002523Y001979D01*
X002554Y002019D01*
X002588Y002056D01*
X002625Y002091D01*
X002664Y002122D01*
X002705Y002151D01*
X002749Y002176D01*
X002795Y002198D01*
X002842Y002216D01*
X002890Y002230D01*
X002939Y002241D01*
X002989Y002248D01*
X003039Y002251D01*
X003090Y002250D01*
X003140Y002245D01*
X003190Y002236D01*
X003238Y002224D01*
X003286Y002207D01*
X003332Y002187D01*
X003377Y002164D01*
X003420Y002137D01*
X003460Y002107D01*
X003498Y002074D01*
X003533Y002038D01*
X003566Y001999D01*
X003595Y001958D01*
X003621Y001915D01*
X003644Y001870D01*
X003663Y001823D01*
X003678Y001775D01*
X003690Y001726D01*
X003698Y001676D01*
X003702Y001626D01*
X003702Y001576D01*
X003698Y001526D01*
X003690Y001476D01*
X003678Y001427D01*
X003663Y001379D01*
X003644Y001332D01*
X003621Y001287D01*
X003595Y001244D01*
X003566Y001203D01*
X003533Y001164D01*
X003498Y001128D01*
X003460Y001095D01*
X003420Y001065D01*
X003377Y001038D01*
X003332Y001015D01*
X003286Y000995D01*
X003238Y000978D01*
X003190Y000966D01*
X003140Y000957D01*
X003090Y000952D01*
X003039Y000951D01*
X002989Y000954D01*
X002939Y000961D01*
X002890Y000972D01*
X002842Y000986D01*
X002795Y001004D01*
X002749Y001026D01*
X002705Y001051D01*
X002664Y001080D01*
X002625Y001111D01*
X002588Y001146D01*
X002554Y001183D01*
X002523Y001223D01*
X002495Y001265D01*
X002471Y001309D01*
X002450Y001355D01*
X002433Y001403D01*
X002420Y001451D01*
X002410Y001501D01*
X002404Y001551D01*
X002402Y001601D01*
X002402Y010601D02*
X002404Y010651D01*
X002410Y010701D01*
X002420Y010751D01*
X002433Y010799D01*
X002450Y010847D01*
X002471Y010893D01*
X002495Y010937D01*
X002523Y010979D01*
X002554Y011019D01*
X002588Y011056D01*
X002625Y011091D01*
X002664Y011122D01*
X002705Y011151D01*
X002749Y011176D01*
X002795Y011198D01*
X002842Y011216D01*
X002890Y011230D01*
X002939Y011241D01*
X002989Y011248D01*
X003039Y011251D01*
X003090Y011250D01*
X003140Y011245D01*
X003190Y011236D01*
X003238Y011224D01*
X003286Y011207D01*
X003332Y011187D01*
X003377Y011164D01*
X003420Y011137D01*
X003460Y011107D01*
X003498Y011074D01*
X003533Y011038D01*
X003566Y010999D01*
X003595Y010958D01*
X003621Y010915D01*
X003644Y010870D01*
X003663Y010823D01*
X003678Y010775D01*
X003690Y010726D01*
X003698Y010676D01*
X003702Y010626D01*
X003702Y010576D01*
X003698Y010526D01*
X003690Y010476D01*
X003678Y010427D01*
X003663Y010379D01*
X003644Y010332D01*
X003621Y010287D01*
X003595Y010244D01*
X003566Y010203D01*
X003533Y010164D01*
X003498Y010128D01*
X003460Y010095D01*
X003420Y010065D01*
X003377Y010038D01*
X003332Y010015D01*
X003286Y009995D01*
X003238Y009978D01*
X003190Y009966D01*
X003140Y009957D01*
X003090Y009952D01*
X003039Y009951D01*
X002989Y009954D01*
X002939Y009961D01*
X002890Y009972D01*
X002842Y009986D01*
X002795Y010004D01*
X002749Y010026D01*
X002705Y010051D01*
X002664Y010080D01*
X002625Y010111D01*
X002588Y010146D01*
X002554Y010183D01*
X002523Y010223D01*
X002495Y010265D01*
X002471Y010309D01*
X002450Y010355D01*
X002433Y010403D01*
X002420Y010451D01*
X002410Y010501D01*
X002404Y010551D01*
X002402Y010601D01*
X014402Y010601D02*
X014404Y010651D01*
X014410Y010701D01*
X014420Y010751D01*
X014433Y010799D01*
X014450Y010847D01*
X014471Y010893D01*
X014495Y010937D01*
X014523Y010979D01*
X014554Y011019D01*
X014588Y011056D01*
X014625Y011091D01*
X014664Y011122D01*
X014705Y011151D01*
X014749Y011176D01*
X014795Y011198D01*
X014842Y011216D01*
X014890Y011230D01*
X014939Y011241D01*
X014989Y011248D01*
X015039Y011251D01*
X015090Y011250D01*
X015140Y011245D01*
X015190Y011236D01*
X015238Y011224D01*
X015286Y011207D01*
X015332Y011187D01*
X015377Y011164D01*
X015420Y011137D01*
X015460Y011107D01*
X015498Y011074D01*
X015533Y011038D01*
X015566Y010999D01*
X015595Y010958D01*
X015621Y010915D01*
X015644Y010870D01*
X015663Y010823D01*
X015678Y010775D01*
X015690Y010726D01*
X015698Y010676D01*
X015702Y010626D01*
X015702Y010576D01*
X015698Y010526D01*
X015690Y010476D01*
X015678Y010427D01*
X015663Y010379D01*
X015644Y010332D01*
X015621Y010287D01*
X015595Y010244D01*
X015566Y010203D01*
X015533Y010164D01*
X015498Y010128D01*
X015460Y010095D01*
X015420Y010065D01*
X015377Y010038D01*
X015332Y010015D01*
X015286Y009995D01*
X015238Y009978D01*
X015190Y009966D01*
X015140Y009957D01*
X015090Y009952D01*
X015039Y009951D01*
X014989Y009954D01*
X014939Y009961D01*
X014890Y009972D01*
X014842Y009986D01*
X014795Y010004D01*
X014749Y010026D01*
X014705Y010051D01*
X014664Y010080D01*
X014625Y010111D01*
X014588Y010146D01*
X014554Y010183D01*
X014523Y010223D01*
X014495Y010265D01*
X014471Y010309D01*
X014450Y010355D01*
X014433Y010403D01*
X014420Y010451D01*
X014410Y010501D01*
X014404Y010551D01*
X014402Y010601D01*
X014402Y001601D02*
X014404Y001651D01*
X014410Y001701D01*
X014420Y001751D01*
X014433Y001799D01*
X014450Y001847D01*
X014471Y001893D01*
X014495Y001937D01*
X014523Y001979D01*
X014554Y002019D01*
X014588Y002056D01*
X014625Y002091D01*
X014664Y002122D01*
X014705Y002151D01*
X014749Y002176D01*
X014795Y002198D01*
X014842Y002216D01*
X014890Y002230D01*
X014939Y002241D01*
X014989Y002248D01*
X015039Y002251D01*
X015090Y002250D01*
X015140Y002245D01*
X015190Y002236D01*
X015238Y002224D01*
X015286Y002207D01*
X015332Y002187D01*
X015377Y002164D01*
X015420Y002137D01*
X015460Y002107D01*
X015498Y002074D01*
X015533Y002038D01*
X015566Y001999D01*
X015595Y001958D01*
X015621Y001915D01*
X015644Y001870D01*
X015663Y001823D01*
X015678Y001775D01*
X015690Y001726D01*
X015698Y001676D01*
X015702Y001626D01*
X015702Y001576D01*
X015698Y001526D01*
X015690Y001476D01*
X015678Y001427D01*
X015663Y001379D01*
X015644Y001332D01*
X015621Y001287D01*
X015595Y001244D01*
X015566Y001203D01*
X015533Y001164D01*
X015498Y001128D01*
X015460Y001095D01*
X015420Y001065D01*
X015377Y001038D01*
X015332Y001015D01*
X015286Y000995D01*
X015238Y000978D01*
X015190Y000966D01*
X015140Y000957D01*
X015090Y000952D01*
X015039Y000951D01*
X014989Y000954D01*
X014939Y000961D01*
X014890Y000972D01*
X014842Y000986D01*
X014795Y001004D01*
X014749Y001026D01*
X014705Y001051D01*
X014664Y001080D01*
X014625Y001111D01*
X014588Y001146D01*
X014554Y001183D01*
X014523Y001223D01*
X014495Y001265D01*
X014471Y001309D01*
X014450Y001355D01*
X014433Y001403D01*
X014420Y001451D01*
X014410Y001501D01*
X014404Y001551D01*
X014402Y001601D01*
D11*
X014052Y003266D03*
X014052Y003935D03*
X007052Y003766D03*
X007052Y004435D03*
X007052Y005766D03*
X007052Y006435D03*
X007052Y007766D03*
X007052Y008435D03*
D12*
X013052Y003652D03*
X013052Y002550D03*
D13*
X005832Y005609D03*
X005052Y005609D03*
X005052Y006593D03*
X005832Y006593D03*
D14*
X003982Y008471D03*
X003982Y003731D03*
D15*
X015552Y004601D03*
X015552Y005601D03*
X015552Y006601D03*
X015552Y007601D03*
D16*
X011991Y007508D03*
X011991Y007252D03*
X011991Y006996D03*
X011991Y006741D03*
X011991Y006485D03*
X011991Y006229D03*
X011991Y005973D03*
X011991Y005717D03*
X011991Y005461D03*
X011991Y005205D03*
X011991Y004949D03*
X011991Y004693D03*
X011991Y004437D03*
X009113Y004437D03*
X009113Y004693D03*
X009113Y004949D03*
X009113Y005205D03*
X009113Y005461D03*
X009113Y005717D03*
X009113Y005973D03*
X009113Y006229D03*
X009113Y006485D03*
X009113Y006741D03*
X009113Y006996D03*
X009113Y007252D03*
X009113Y007508D03*
X009113Y007764D03*
X011991Y007764D03*
D17*
X012672Y008101D02*
X012672Y005941D01*
X012032Y005941D01*
X011991Y005973D01*
X011952Y006021D01*
X009552Y006021D01*
X009552Y006181D01*
X009552Y006981D01*
X009152Y006981D01*
X009113Y006996D01*
X009072Y006981D01*
X008752Y006981D01*
X008672Y006901D01*
X008672Y006821D01*
X006672Y006821D01*
X006672Y006101D01*
X006992Y005781D01*
X007052Y005766D01*
X007392Y006101D02*
X007392Y005381D01*
X006752Y004741D01*
X006992Y004501D01*
X007052Y004435D01*
X006752Y004741D02*
X005872Y005621D01*
X005832Y005609D01*
X007052Y006435D02*
X007072Y006421D01*
X007392Y006101D01*
X006672Y006821D02*
X006672Y007381D01*
X006992Y007701D01*
X007052Y007766D01*
X007072Y008421D02*
X007052Y008435D01*
X007072Y008421D02*
X008192Y007301D01*
X009072Y007301D01*
X009113Y007252D01*
X009113Y007508D02*
X009072Y007541D01*
X008272Y007541D01*
X008272Y007701D01*
X009072Y007781D02*
X009113Y007764D01*
X009072Y007781D02*
X008032Y008821D01*
X005072Y008821D01*
X005072Y006661D01*
X005052Y006593D01*
X007072Y003781D02*
X008112Y004821D01*
X008912Y004021D01*
X012592Y004021D01*
X012592Y004101D01*
X012992Y003701D01*
X013052Y003652D01*
X013072Y003621D01*
X013072Y003301D01*
X014032Y003301D01*
X014052Y003266D01*
X014112Y003301D01*
X014432Y003621D01*
X014432Y006421D01*
X015552Y007541D01*
X015552Y007601D01*
X016032Y007781D02*
X015712Y008101D01*
X012672Y008101D01*
X015072Y006101D02*
X015552Y006581D01*
X015552Y006601D01*
X015552Y006661D01*
X016032Y007141D01*
X016032Y007781D01*
X015072Y006101D02*
X015072Y003941D01*
X014512Y003381D01*
X014512Y002581D01*
X013072Y002581D01*
X013052Y002550D01*
X014032Y003941D02*
X014052Y003935D01*
X014032Y003941D02*
X013872Y004101D01*
X013872Y004741D01*
X012672Y005941D01*
X012832Y005461D02*
X012032Y005461D01*
X011991Y005461D01*
X012032Y005221D02*
X011991Y005205D01*
X012032Y005221D02*
X012592Y005221D01*
X012592Y004101D01*
X011991Y004437D02*
X011952Y004421D01*
X011392Y004421D01*
X012832Y005301D02*
X013472Y004661D01*
X012832Y005301D02*
X012832Y005461D01*
X009552Y005301D02*
X009152Y004901D01*
X009113Y004949D01*
X009152Y004981D01*
X009152Y005141D01*
X009113Y005205D01*
X009552Y005301D02*
X009552Y006021D01*
X009552Y006181D02*
X009152Y006181D01*
X009113Y006229D01*
X009113Y006485D02*
X009072Y006501D01*
X008832Y006501D01*
X008672Y006341D01*
X008672Y005381D01*
X008112Y004821D01*
X007072Y003781D02*
X007052Y003766D01*
D18*
X011392Y004421D03*
X013472Y004661D03*
X008272Y007701D03*
M02*
