G75*
G70*
%OFA0B0*%
%FSLAX24Y24*%
%IPPOS*%
%LPD*%
%AMOC8*
5,1,8,0,0,1.08239X$1,22.5*
%
%ADD10C,0.0081*%
%ADD11C,0.0082*%
%ADD12C,0.0640*%
%ADD13C,0.1380*%
%ADD14C,0.0680*%
%ADD15C,0.0080*%
%ADD16C,0.0480*%
D10*
X006855Y003550D02*
X006855Y003982D01*
X007249Y003982D01*
X007249Y003550D01*
X006855Y003550D01*
X006855Y003630D02*
X007249Y003630D01*
X007249Y003710D02*
X006855Y003710D01*
X006855Y003790D02*
X007249Y003790D01*
X007249Y003870D02*
X006855Y003870D01*
X006855Y003950D02*
X007249Y003950D01*
X006855Y004219D02*
X006855Y004651D01*
X007249Y004651D01*
X007249Y004219D01*
X006855Y004219D01*
X006855Y004299D02*
X007249Y004299D01*
X007249Y004379D02*
X006855Y004379D01*
X006855Y004459D02*
X007249Y004459D01*
X007249Y004539D02*
X006855Y004539D01*
X006855Y004619D02*
X007249Y004619D01*
X006855Y005550D02*
X006855Y005982D01*
X007249Y005982D01*
X007249Y005550D01*
X006855Y005550D01*
X006855Y005630D02*
X007249Y005630D01*
X007249Y005710D02*
X006855Y005710D01*
X006855Y005790D02*
X007249Y005790D01*
X007249Y005870D02*
X006855Y005870D01*
X006855Y005950D02*
X007249Y005950D01*
X006855Y006219D02*
X006855Y006651D01*
X007249Y006651D01*
X007249Y006219D01*
X006855Y006219D01*
X006855Y006299D02*
X007249Y006299D01*
X007249Y006379D02*
X006855Y006379D01*
X006855Y006459D02*
X007249Y006459D01*
X007249Y006539D02*
X006855Y006539D01*
X006855Y006619D02*
X007249Y006619D01*
X006855Y007550D02*
X006855Y007982D01*
X007249Y007982D01*
X007249Y007550D01*
X006855Y007550D01*
X006855Y007630D02*
X007249Y007630D01*
X007249Y007710D02*
X006855Y007710D01*
X006855Y007790D02*
X007249Y007790D01*
X007249Y007870D02*
X006855Y007870D01*
X006855Y007950D02*
X007249Y007950D01*
X006855Y008219D02*
X006855Y008651D01*
X007249Y008651D01*
X007249Y008219D01*
X006855Y008219D01*
X006855Y008299D02*
X007249Y008299D01*
X007249Y008379D02*
X006855Y008379D01*
X006855Y008459D02*
X007249Y008459D01*
X007249Y008539D02*
X006855Y008539D01*
X006855Y008619D02*
X007249Y008619D01*
X014249Y004151D02*
X014249Y003719D01*
X013855Y003719D01*
X013855Y004151D01*
X014249Y004151D01*
X014249Y003799D02*
X013855Y003799D01*
X013855Y003879D02*
X014249Y003879D01*
X014249Y003959D02*
X013855Y003959D01*
X013855Y004039D02*
X014249Y004039D01*
X014249Y004119D02*
X013855Y004119D01*
X014249Y003482D02*
X014249Y003050D01*
X013855Y003050D01*
X013855Y003482D01*
X014249Y003482D01*
X014249Y003130D02*
X013855Y003130D01*
X013855Y003210D02*
X014249Y003210D01*
X014249Y003290D02*
X013855Y003290D01*
X013855Y003370D02*
X014249Y003370D01*
X014249Y003450D02*
X013855Y003450D01*
D11*
X013366Y003926D02*
X012738Y003926D01*
X013366Y003926D02*
X013366Y003378D01*
X012738Y003378D01*
X012738Y003926D01*
X012738Y003459D02*
X013366Y003459D01*
X013366Y003540D02*
X012738Y003540D01*
X012738Y003621D02*
X013366Y003621D01*
X013366Y003702D02*
X012738Y003702D01*
X012738Y003783D02*
X013366Y003783D01*
X013366Y003864D02*
X012738Y003864D01*
X012738Y002824D02*
X013366Y002824D01*
X013366Y002276D01*
X012738Y002276D01*
X012738Y002824D01*
X012738Y002357D02*
X013366Y002357D01*
X013366Y002438D02*
X012738Y002438D01*
X012738Y002519D02*
X013366Y002519D01*
X013366Y002600D02*
X012738Y002600D01*
X012738Y002681D02*
X013366Y002681D01*
X013366Y002762D02*
X012738Y002762D01*
D12*
X005832Y005609D03*
X005052Y005609D03*
X005052Y006593D03*
X005832Y006593D03*
D13*
X003052Y001601D03*
X003982Y003731D03*
X003982Y008471D03*
X003052Y010601D03*
X015052Y010601D03*
X015052Y001601D03*
D14*
X015552Y004601D03*
X015552Y005601D03*
X015552Y006601D03*
X015552Y007601D03*
D15*
X012266Y007576D02*
X012266Y007440D01*
X011716Y007440D01*
X011716Y007576D01*
X012266Y007576D01*
X012266Y007519D02*
X011716Y007519D01*
X012266Y007696D02*
X012266Y007832D01*
X012266Y007696D02*
X011716Y007696D01*
X011716Y007832D01*
X012266Y007832D01*
X012266Y007775D02*
X011716Y007775D01*
X012266Y007320D02*
X012266Y007184D01*
X011716Y007184D01*
X011716Y007320D01*
X012266Y007320D01*
X012266Y007263D02*
X011716Y007263D01*
X012266Y007064D02*
X012266Y006928D01*
X011716Y006928D01*
X011716Y007064D01*
X012266Y007064D01*
X012266Y007007D02*
X011716Y007007D01*
X012266Y006809D02*
X012266Y006673D01*
X011716Y006673D01*
X011716Y006809D01*
X012266Y006809D01*
X012266Y006752D02*
X011716Y006752D01*
X012266Y006553D02*
X012266Y006417D01*
X011716Y006417D01*
X011716Y006553D01*
X012266Y006553D01*
X012266Y006496D02*
X011716Y006496D01*
X012266Y006297D02*
X012266Y006161D01*
X011716Y006161D01*
X011716Y006297D01*
X012266Y006297D01*
X012266Y006240D02*
X011716Y006240D01*
X012266Y006041D02*
X012266Y005905D01*
X011716Y005905D01*
X011716Y006041D01*
X012266Y006041D01*
X012266Y005984D02*
X011716Y005984D01*
X012266Y005785D02*
X012266Y005649D01*
X011716Y005649D01*
X011716Y005785D01*
X012266Y005785D01*
X012266Y005728D02*
X011716Y005728D01*
X012266Y005529D02*
X012266Y005393D01*
X011716Y005393D01*
X011716Y005529D01*
X012266Y005529D01*
X012266Y005472D02*
X011716Y005472D01*
X012266Y005273D02*
X012266Y005137D01*
X011716Y005137D01*
X011716Y005273D01*
X012266Y005273D01*
X012266Y005216D02*
X011716Y005216D01*
X012266Y005017D02*
X012266Y004881D01*
X011716Y004881D01*
X011716Y005017D01*
X012266Y005017D01*
X012266Y004960D02*
X011716Y004960D01*
X012266Y004761D02*
X012266Y004625D01*
X011716Y004625D01*
X011716Y004761D01*
X012266Y004761D01*
X012266Y004704D02*
X011716Y004704D01*
X012266Y004505D02*
X012266Y004369D01*
X011716Y004369D01*
X011716Y004505D01*
X012266Y004505D01*
X012266Y004448D02*
X011716Y004448D01*
X009388Y004505D02*
X009388Y004369D01*
X008838Y004369D01*
X008838Y004505D01*
X009388Y004505D01*
X009388Y004448D02*
X008838Y004448D01*
X009388Y004625D02*
X009388Y004761D01*
X009388Y004625D02*
X008838Y004625D01*
X008838Y004761D01*
X009388Y004761D01*
X009388Y004704D02*
X008838Y004704D01*
X009388Y004881D02*
X009388Y005017D01*
X009388Y004881D02*
X008838Y004881D01*
X008838Y005017D01*
X009388Y005017D01*
X009388Y004960D02*
X008838Y004960D01*
X009388Y005137D02*
X009388Y005273D01*
X009388Y005137D02*
X008838Y005137D01*
X008838Y005273D01*
X009388Y005273D01*
X009388Y005216D02*
X008838Y005216D01*
X009388Y005393D02*
X009388Y005529D01*
X009388Y005393D02*
X008838Y005393D01*
X008838Y005529D01*
X009388Y005529D01*
X009388Y005472D02*
X008838Y005472D01*
X009388Y005649D02*
X009388Y005785D01*
X009388Y005649D02*
X008838Y005649D01*
X008838Y005785D01*
X009388Y005785D01*
X009388Y005728D02*
X008838Y005728D01*
X009388Y005905D02*
X009388Y006041D01*
X009388Y005905D02*
X008838Y005905D01*
X008838Y006041D01*
X009388Y006041D01*
X009388Y005984D02*
X008838Y005984D01*
X009388Y006161D02*
X009388Y006297D01*
X009388Y006161D02*
X008838Y006161D01*
X008838Y006297D01*
X009388Y006297D01*
X009388Y006240D02*
X008838Y006240D01*
X009388Y006417D02*
X009388Y006553D01*
X009388Y006417D02*
X008838Y006417D01*
X008838Y006553D01*
X009388Y006553D01*
X009388Y006496D02*
X008838Y006496D01*
X009388Y006673D02*
X009388Y006809D01*
X009388Y006673D02*
X008838Y006673D01*
X008838Y006809D01*
X009388Y006809D01*
X009388Y006752D02*
X008838Y006752D01*
X009388Y006928D02*
X009388Y007064D01*
X009388Y006928D02*
X008838Y006928D01*
X008838Y007064D01*
X009388Y007064D01*
X009388Y007007D02*
X008838Y007007D01*
X009388Y007184D02*
X009388Y007320D01*
X009388Y007184D02*
X008838Y007184D01*
X008838Y007320D01*
X009388Y007320D01*
X009388Y007263D02*
X008838Y007263D01*
X009388Y007440D02*
X009388Y007576D01*
X009388Y007440D02*
X008838Y007440D01*
X008838Y007576D01*
X009388Y007576D01*
X009388Y007519D02*
X008838Y007519D01*
X009388Y007696D02*
X009388Y007832D01*
X009388Y007696D02*
X008838Y007696D01*
X008838Y007832D01*
X009388Y007832D01*
X009388Y007775D02*
X008838Y007775D01*
D16*
X008272Y007701D03*
X011392Y004421D03*
X013472Y004661D03*
M02*
