G75*
G70*
%OFA0B0*%
%FSLAX24Y24*%
%IPPOS*%
%LPD*%
%AMOC8*
5,1,8,0,0,1.08239X$1,22.5*
%
%ADD10C,0.0080*%
%ADD11C,0.0560*%
%ADD12C,0.1300*%
%ADD13C,0.0600*%
%ADD14C,0.0100*%
%ADD15C,0.0400*%
D10*
X002092Y004641D02*
X002372Y004921D01*
X002442Y004921D01*
X002512Y004851D01*
X002512Y004711D01*
X002442Y004641D01*
X002092Y004641D02*
X002092Y004921D01*
X002302Y005101D02*
X002302Y005381D01*
X002302Y005561D02*
X002302Y005842D01*
X002442Y006022D02*
X002512Y006092D01*
X002512Y006232D01*
X002442Y006302D01*
X002372Y006302D01*
X002092Y006022D01*
X002092Y006302D01*
X002302Y006482D02*
X002302Y006762D01*
X002372Y006943D02*
X002512Y007083D01*
X002092Y007083D01*
X002092Y006943D02*
X002092Y007223D01*
X002162Y007403D02*
X002442Y007683D01*
X002162Y007683D01*
X002092Y007613D01*
X002092Y007473D01*
X002162Y007403D01*
X002442Y007403D01*
X002512Y007473D01*
X002512Y007613D01*
X002442Y007683D01*
X002512Y005311D02*
X002092Y005311D01*
X002302Y005101D02*
X002512Y005311D01*
D11*
X005052Y005609D03*
X005832Y005609D03*
X005832Y006593D03*
X005052Y006593D03*
D12*
X003982Y003731D03*
X003982Y008471D03*
D13*
X015552Y007601D03*
X015552Y006601D03*
X015552Y005601D03*
X015552Y004601D03*
D14*
X015552Y004661D01*
X013472Y004661D01*
X012512Y005541D02*
X015552Y005541D01*
X015552Y005601D01*
X012512Y005541D02*
X011392Y004421D01*
X008272Y007701D02*
X007232Y006661D01*
X005872Y006661D01*
X005832Y006593D01*
D15*
X008272Y007701D03*
X011392Y004421D03*
X013472Y004661D03*
M02*
